<svg width="44" height="44" viewBox="0 0 44 44" fill="none" xmlns="http://www.w3.org/2000/svg">
<circle cx="22" cy="22" r="21" fill="#63A2FF" stroke="white" stroke-width="2"/>
<mask id="mask0_102_5661" style="mask-type:alpha" maskUnits="userSpaceOnUse" x="0" y="0" width="44" height="44">
<circle cx="22" cy="22" r="21" fill="white" stroke="white" stroke-width="2"/>
</mask>
<g mask="url(#mask0_102_5661)">
<mask id="mask1_102_5661" style="mask-type:alpha" maskUnits="userSpaceOnUse" x="-214" y="-45" width="266" height="152">
<path fill-rule="evenodd" clip-rule="evenodd" d="M-214 -44.463H51.2443V106.777H-214V-44.463Z" fill="white"/>
</mask>
<g mask="url(#mask1_102_5661)">
<path fill-rule="evenodd" clip-rule="evenodd" d="M52.7557 109.864V121.217H-213.244V-58.143H-187.219C-184.711 -57.1924 -182.264 -56.0732 -179.902 -54.7997C-164.322 -46.3985 -152.493 -31.3 -147.596 -14.1424C-143.325 0.816244 -144.169 16.704 -142.662 32.2007C-141.155 47.6938 -136.555 64.0837 -124.482 73.7404C-114.743 81.5282 -101.641 83.6447 -89.2316 83.1927C-76.8253 82.7371 -64.6 80.0001 -52.2079 79.2504C-33.0772 78.0881 -13.6805 81.7542 3.74074 89.8254C18.0657 96.4618 31.3406 106.108 46.8221 109.074C48.787 109.451 50.7695 109.713 52.7557 109.864" fill="#FFFFFE"/>
<path fill-rule="evenodd" clip-rule="evenodd" d="M52.7557 -58.143V72.577C52.4365 72.4841 52.121 72.3839 51.809 72.2767C43.2425 69.3802 36.0554 62.5324 32.793 54.0361C28.8151 43.6803 30.5418 31.601 25.6594 21.6457C20.5288 11.1755 9.06907 5.2932 -2.26299 2.86517C-13.5915 0.437148 -25.3313 0.74825 -36.7591 -1.13982C-56.2356 -4.35454 -74.5917 -14.1417 -88.1895 -28.5668C-94.4689 -35.2251 -99.8478 -43.0527 -102.014 -51.9782C-102.503 -53.9878 -102.805 -56.0618 -102.915 -58.143H52.7557" fill="#FFFFFE"/>
</g>
<path fill-rule="evenodd" clip-rule="evenodd" d="M-9.16723 1.13157C-7.29287 3.23047 -4.58075 3.81888 -2.48006 3.42032C2.85945 2.40238 3.97162 -5.44744 -2.14877 -8.59522C-4.87501 -9.997 -8.26192 -9.79206 -9.94621 -7.30554C-11.4984 -5.01415 -11.4145 -1.38552 -9.16723 1.13157" fill="#71C1AD"/>
<path fill-rule="evenodd" clip-rule="evenodd" d="M0.0131463 -0.442047C-1.01552 -0.225504 -1.41026 0.917256 -0.458536 1.47043C-0.0688128 1.70075 0.264041 1.28341 0.379453 0.984188C0.342655 1.14266 0.304185 1.30507 0.264041 1.46846C0.444686 1.37987 0.588532 1.26865 0.702271 1.12888C0.886261 0.908398 0.996655 0.641655 1 0.359164C0.994982 -0.0306143 0.653765 -0.576895 0.0131463 -0.442047" fill="#FFF9E0"/>
<mask id="mask2_102_5661" style="mask-type:alpha" maskUnits="userSpaceOnUse" x="12" y="-46" width="40" height="70">
<path fill-rule="evenodd" clip-rule="evenodd" d="M12 -45.463H51.2453V23.7678H12V-45.463Z" fill="white"/>
</mask>
<g mask="url(#mask2_102_5661)">
<path fill-rule="evenodd" clip-rule="evenodd" d="M48.4569 -25.6419C43.5131 -27.8976 38.4319 -29.8387 33.377 -31.8163C29.5791 -33.2978 25.4674 -34.6505 21.4119 -33.4825C14.3614 -31.4518 13.5297 -20.2856 12.9201 -14.4121C11.9211 -4.72914 12.4614 4.9963 12.0009 14.6929C11.9925 14.8869 12.0438 15.0174 12.1225 15.1012C12.0677 17.8762 12.4407 20.5677 13.8274 22.5627C16.5725 26.5043 24.6494 19.6551 26.8471 18.0167C32.8195 13.5616 38.615 9.24097 44.8633 5.14252C48.7262 2.61077 52.4731 -0.0764771 56.1866 -2.82756C58.816 -4.7673 61.8007 -6.96596 63.2574 -10.0091C67.514 -18.9164 54.0461 -23.0869 48.4569 -25.6419" fill="#F5BD78"/>
</g>
<path fill-rule="evenodd" clip-rule="evenodd" d="M20.3473 18.5056C21.113 18.7981 22.7007 16.9652 21.6533 16.5687C20.884 16.2751 19.2995 18.1086 20.3473 18.5056" fill="#FFF9E0"/>
<path fill-rule="evenodd" clip-rule="evenodd" d="M18.0727 18.0911C18.0933 18.1288 18.1136 18.168 18.1346 18.2046C18.4656 18.8623 19.1879 18.3982 19.5477 18.0577C19.8251 17.7925 20.0273 17.4525 19.997 16.973C19.9822 16.7858 19.8881 16.7184 19.7764 16.6903C19.6197 16.5476 19.3991 16.5025 19.2167 16.5635C19.1607 16.5848 19.1012 16.6007 19.044 16.6219C18.7153 16.7306 17.7258 17.4011 18.0727 18.0911" fill="#FFF9E0"/>
<path fill-rule="evenodd" clip-rule="evenodd" d="M18.0057 15.8304C18.0081 15.8676 18.0141 15.9067 18.018 15.9416C18.0606 16.3725 18.4764 16.4846 18.7891 16.4064C18.8042 16.4236 18.8198 16.4432 18.8393 16.4618C19.0501 16.7089 19.6828 16.2971 19.6211 15.9537C19.6191 15.9402 19.6143 15.9276 19.6135 15.9151C19.7337 15.782 19.8471 15.6419 19.9159 15.4507C20.498 13.9198 17.8617 14.4964 18.0057 15.8304" fill="#FFF9E0"/>
<path fill-rule="evenodd" clip-rule="evenodd" d="M18.0115 10.9969C18.0087 11.0657 18.0369 11.1311 18.0833 11.1925C18.1095 11.2356 18.1535 11.2673 18.1938 11.3049C18.1902 11.3079 18.191 11.3114 18.1865 11.3158C18.2849 11.6253 18.7183 11.5461 18.9034 11.4584C19.2897 11.2717 19.6889 11.0024 19.9026 10.5468C20.1408 10.0427 19.9239 9.56083 19.4498 9.53755C18.8724 9.51329 17.8821 10.3472 18.0115 10.9969" fill="#FFF9E0"/>
<path fill-rule="evenodd" clip-rule="evenodd" d="M20.0538 16.2729C20.1459 16.6083 20.4381 16.5718 20.7012 16.4497C20.7439 16.4524 20.7796 16.4558 20.8256 16.4571C21.2221 16.4261 22.4355 15.5751 21.837 14.8253C21.2099 14.0324 19.6968 14.9934 20.0538 16.2729" fill="#FFF9E0"/>
<path fill-rule="evenodd" clip-rule="evenodd" d="M29.3314 14.4885C29.8336 14.6748 30.4307 14.297 30.7612 13.83C31.0204 13.4569 31.1684 12.7655 30.6692 12.5853C30.1663 12.3999 29.5702 12.7759 29.2405 13.2461C28.9794 13.6192 28.831 14.3083 29.3314 14.4885" fill="#FFF9E0"/>
<path fill-rule="evenodd" clip-rule="evenodd" d="M31.3324 5.12357C31.3416 5.1388 31.3423 5.15443 31.3833 5.19932C31.4542 5.29111 31.4967 5.39772 31.5775 5.48911C31.6855 5.60494 31.9384 5.4843 32.0265 5.40574C32.3574 5.10633 32.6482 4.75883 32.8929 4.38006C33.1626 3.96843 32.8895 3.55079 32.4455 3.53756C31.8778 3.52273 31.4021 3.82133 31.101 4.31513C30.9056 4.64179 30.9995 4.98008 31.3324 5.12357" fill="#FFF9E0"/>
<path fill-rule="evenodd" clip-rule="evenodd" d="M36.2921 44.3486L36.2455 44.3085L36.2446 44.3088L36.2921 44.3486ZM36.1518 44.2622L36.1014 44.2552L36.1518 44.2622ZM34.8011 42.0803L34.891 42.0222C35.1824 41.8491 35.4815 41.6904 35.8021 41.6044C36.1757 41.5058 36.572 41.516 36.9406 41.6314C37.4725 41.7971 37.885 42.2278 38.2256 42.7026C38.4555 43.0236 38.6874 43.3483 38.8368 43.7303C38.9431 43.9355 38.9976 44.1586 39 44.3966C38.9885 44.5086 38.977 44.6207 38.9652 44.7337C38.9148 44.9585 38.8203 45.1566 38.68 45.3254C38.4658 45.5809 38.1643 45.7304 37.8552 45.7338C37.6534 45.7344 37.4645 45.6804 37.2868 45.5701C37.0938 45.4209 36.9079 45.2791 36.7603 45.0723C36.6949 44.9798 36.63 44.888 36.5646 44.7952C36.4494 44.6315 36.3321 44.4722 36.2057 44.3227L36.1442 44.3439C36.041 44.4064 35.9411 44.4728 35.8433 44.5478C35.691 44.7034 35.5486 44.8681 35.4169 45.0486L35.3409 45.2015L35.3338 45.237L35.3415 45.5012C35.4729 46.2977 35.716 47.0686 35.9352 47.8364C36.1333 48.532 35.7107 49.3005 35.1161 49.4895C34.8241 49.5813 34.5055 49.5391 34.2392 49.3711C33.9534 49.1915 33.7736 48.9013 33.674 48.553C33.4851 47.8908 33.268 47.2239 33.146 46.5397C33.0346 45.9214 32.9338 45.2926 33.0552 44.6645C33.184 43.9946 33.5196 43.4573 33.9041 42.949C33.994 42.8312 34.0924 42.7232 34.1938 42.6213C34.383 42.4323 34.5819 42.2305 34.8011 42.0803V42.0803Z" fill="#434253"/>
<path fill-rule="evenodd" clip-rule="evenodd" d="M22.7022 38.2699C22.4897 38.4335 22.2737 38.6055 22.078 38.7899C21.8243 39.0285 21.6323 39.3085 21.4403 39.6082C21.3077 39.814 21.2347 40.0861 21.1572 40.3148C21.1178 40.4308 21.0903 40.5494 21.0629 40.6691C20.9542 41.1582 21.0029 41.6703 21.0842 42.1576C21.2408 43.0944 21.6628 43.9527 22.0718 44.7899C22.4379 45.5409 23.4231 45.7384 24.0755 45.3249C24.4067 45.115 24.6483 44.7695 24.7426 44.3728C24.8413 43.9571 24.7622 43.573 24.5794 43.1995C24.4427 42.9184 24.309 42.638 24.1797 42.3529C24.0786 42.0743 23.9929 41.7935 23.9336 41.5001L23.9254 41.3248L23.9614 41.1837L23.9953 41.1157C24.1376 40.9465 24.2932 40.7916 24.4553 40.6425C24.5541 40.5738 24.6528 40.5083 24.7563 40.4472L24.8324 40.4261C24.949 40.4163 25.0638 40.413 25.1818 40.4174C25.4594 40.4672 25.7299 40.5334 26 40.6232C26.1622 40.6992 26.3192 40.7822 26.4721 40.8789C26.7055 41.0276 26.9335 41.1862 27.1724 41.3269C27.6565 41.6081 28.2759 41.5084 28.6585 41.084C28.8786 40.8396 29.003 40.5069 28.9999 40.1686C28.9958 39.7908 28.8436 39.5115 28.6191 39.2365C28.3469 38.9001 27.9777 38.6379 27.6215 38.4117C27.2599 38.183 26.8721 37.996 26.4714 37.8589C26.0391 37.7098 25.6109 37.6109 25.1584 37.5578C24.3991 37.4701 23.6281 37.6633 22.9761 38.0768C22.8822 38.1364 22.791 38.2004 22.7022 38.2699" fill="#434253"/>
<path fill-rule="evenodd" clip-rule="evenodd" d="M36.1685 30.946C35.7903 31.418 35.5187 31.9587 35.3253 32.5537C35.1875 32.9759 35.1087 33.4115 35.0311 33.8529C34.9681 34.2122 34.995 34.5581 35.1652 34.879C35.3289 35.1875 35.5972 35.4114 35.906 35.4987C36.5189 35.6725 37.2429 35.2397 37.3706 34.5145C37.4369 34.1329 37.5054 33.7543 37.6132 33.385C37.6777 33.228 37.751 33.0782 37.8341 32.9319C37.9456 32.7797 38.0608 32.6344 38.1891 32.5004C38.2648 32.4407 38.3434 32.385 38.424 32.3345L38.688 32.2565C38.8093 32.2469 38.9293 32.2445 39.0503 32.2514C39.2748 32.2947 39.4942 32.3538 39.7105 32.4345C39.818 32.4874 39.924 32.5423 40.0267 32.6069C40.1538 32.6866 40.2745 32.7773 40.3933 32.8711C40.5852 33.0398 40.7669 33.2191 40.9493 33.4025C41.4427 33.8975 42.1976 33.9109 42.6669 33.3592C43.1181 32.8295 43.1163 31.9309 42.6287 31.428C42.1802 30.9639 41.6987 30.5183 41.1638 30.1851C40.8812 30.0096 40.5647 29.8862 40.2607 29.766C40.0081 29.6667 39.734 29.6227 39.4688 29.5853C39.1826 29.5468 38.9217 29.5221 38.636 29.5472C38.318 29.5764 37.9942 29.6365 37.692 29.7581C37.4834 29.8423 37.2854 29.9501 37.0969 30.0765C36.7511 30.3088 36.4404 30.6066 36.1685 30.946" fill="#434253"/>
<path fill-rule="evenodd" clip-rule="evenodd" d="M14.4487 38.8047L14.4432 38.8671L14.4503 38.8009L14.4487 38.8047ZM13.7406 36.0754C14.3463 35.6942 15.0601 35.4782 15.7685 35.5511C16.0535 35.5788 16.3424 35.6125 16.6191 35.6946C16.9002 35.7756 17.1673 35.882 17.4363 36.0021C17.6924 36.1159 17.8898 36.4299 17.9607 36.7003C18.0365 36.9876 18.0015 37.2989 17.8657 37.5589C17.6327 38.0055 17.1169 38.25 16.6448 38.1176C16.3581 38.0366 16.0776 37.9491 15.7878 37.8948C15.6709 37.8891 15.5547 37.8894 15.4386 37.8982L15.2723 37.9481C15.1715 38.0042 15.0755 38.0656 14.9808 38.1335C14.8387 38.2679 14.7096 38.4134 14.5873 38.5693L14.5251 38.6713C14.6692 38.9751 14.8412 39.2625 15.011 39.5515C15.3692 40.1615 15.158 40.991 14.5803 41.3543C13.9894 41.7257 13.2248 41.5096 12.866 40.8999C12.744 40.6912 12.6182 40.4819 12.5049 40.2668C12.3152 39.908 12.1294 39.5258 12.0482 39.122C11.9766 38.7695 11.991 38.4741 12.0507 38.1196C12.104 37.9718 12.1602 37.8246 12.2173 37.6784C12.2645 37.5855 12.3187 37.4964 12.3813 37.4134C12.6882 36.962 13.0387 36.5845 13.471 36.2608C13.5573 36.1959 13.6479 36.1335 13.7406 36.0754V36.0754Z" fill="#434253"/>
<path fill-rule="evenodd" clip-rule="evenodd" d="M22.4955 28.6242C22.266 28.8215 22.0575 29.0316 21.8669 29.2659C21.5022 29.7137 21.2624 30.2037 21.1108 30.7572C21.0153 31.1082 21.013 31.491 21.002 31.8528C20.9928 32.1936 21.0176 32.5375 21.039 32.8776C21.0661 33.34 21.0974 33.8042 21.1265 34.268C21.149 34.6186 21.267 34.9341 21.5312 35.1819C21.7756 35.411 22.1106 35.5403 22.4501 35.537C23.1336 35.5306 23.7916 34.9401 23.7462 34.2426C23.7122 33.716 23.677 33.189 23.6461 32.662C23.6232 32.277 23.6098 31.8856 23.6362 31.4999C23.6599 31.3829 23.6889 31.2708 23.7232 31.1583C23.7733 31.0611 23.8252 30.9677 23.8833 30.8746C24.0429 30.687 24.2147 30.5158 24.4003 30.3528C24.5023 30.2863 24.6073 30.228 24.7165 30.1723L24.946 30.1088L25.2756 30.0994C25.3768 30.1226 25.4749 30.1484 25.5731 30.179C25.7808 30.2766 25.9786 30.3857 26.1703 30.5113C26.4331 30.7098 26.7096 30.9195 27.0093 31.0413C27.2159 31.1512 27.437 31.2054 27.6708 31.2039C28.0309 31.2013 28.3807 31.0533 28.6304 30.7969C29.115 30.302 29.1456 29.4035 28.5877 28.9378C28.2524 28.6574 27.8583 28.4309 27.4897 28.1951C27.1502 27.9776 26.7462 27.815 26.3601 27.7043C25.9412 27.5836 25.5009 27.5238 25.0648 27.5395C24.828 27.547 24.5932 27.5974 24.3595 27.6314C23.9917 27.6886 23.6346 27.8662 23.3062 28.0359L23.1943 28.0968C22.9431 28.2444 22.7147 28.4343 22.4955 28.6242" fill="#434253"/>
</g>
</svg>
