<svg width="40" height="40" viewBox="0 0 40 40" fill="none" xmlns="http://www.w3.org/2000/svg">
<path d="M39.9907 20.0246C39.9907 31.0545 31.0485 39.9973 20.018 39.9973C8.98746 39.997 0.0455635 31.0551 0.0451965 20.0246C0.0451965 8.99469 8.98739 0.0518341 20.018 0.0518341C31.0486 0.0518341 39.9907 8.99394 39.9907 20.0246Z" fill="#28D196"/>
<path fill-rule="evenodd" clip-rule="evenodd" d="M23.6206 9.68838C23.6206 9.23004 23.249 8.85848 22.7907 8.85848L17.5429 8.85782C17.2306 8.85782 16.9774 9.11098 16.9774 9.42327V11.3502C16.9774 11.5703 17.0648 11.7814 17.2205 11.937C17.3761 12.0926 17.5872 12.1801 17.8073 12.1801H22.7907C23.0109 12.1801 23.2221 12.0926 23.3778 11.9368C23.5334 11.781 23.6208 11.5697 23.6206 11.3495V9.68838ZM18.0851 14.3954C16.2502 14.3954 14.7628 12.9079 14.7628 11.0731L13.6558 11.0751C12.4331 11.0751 11.4419 12.0663 11.4419 13.289V28.7861C11.4417 29.3734 11.6749 29.9366 12.0901 30.352C12.5053 30.7673 13.0685 31.0007 13.6558 31.0007H26.9409C28.164 31.0007 29.1555 30.0092 29.1555 28.7861V13.289C29.156 12.7018 28.9232 12.1383 28.5082 11.7227C28.0932 11.3071 27.5302 11.0735 26.9429 11.0731H25.8359C25.8359 12.9079 24.3485 14.3954 22.5136 14.3954H18.0851Z" fill="#F9FAFC"/>
<g style="mix-blend-mode:overlay">
<path d="M39.9907 20.0246C39.9907 31.0545 31.0485 39.9973 20.018 39.9973C14.7285 40.0041 9.65372 37.9058 5.91364 34.1655L34.1229 5.88373C37.8852 9.62702 39.9974 14.7174 39.9907 20.0246Z" fill="#7B187D"/>
</g>
</svg>
