<svg width="452" height="387" viewBox="0 0 452 387" fill="none" xmlns="http://www.w3.org/2000/svg">
<path fill-rule="evenodd" clip-rule="evenodd" d="M408.047 210.856H393.437C392.968 210.856 392.587 210.523 392.587 210.113V209.268C392.587 208.859 392.968 208.526 393.437 208.526H408.047C408.515 208.526 408.897 208.859 408.897 209.268V210.113C408.897 210.523 408.515 210.856 408.047 210.856Z" fill="#E8E6E1"/>
<path fill-rule="evenodd" clip-rule="evenodd" d="M305.216 214.351C305.216 214.351 305.794 232.99 327.933 232.99C350.072 232.99 350.649 214.351 350.649 214.351H305.216Z" fill="#DAD9D3"/>
<path fill-rule="evenodd" clip-rule="evenodd" d="M250.464 189.887H284.247V182.897H250.464V189.887Z" fill="#D3D1CB"/>
<path fill-rule="evenodd" clip-rule="evenodd" d="M120.378 214.351H95.1371C93.4288 214.351 92.0308 213.04 92.0308 211.438C92.0308 209.835 93.4288 208.526 95.1371 208.526H120.378C122.086 208.526 123.484 209.835 123.484 211.438C123.484 213.04 122.086 214.351 120.378 214.351Z" fill="#E8E6E1"/>
<path fill-rule="evenodd" clip-rule="evenodd" d="M120.378 160.763H95.1371C93.4288 160.763 92.0308 159.452 92.0308 157.851C92.0308 156.248 93.4288 154.938 95.1371 154.938H120.378C122.086 154.938 123.484 156.248 123.484 157.851C123.484 159.452 122.086 160.763 120.378 160.763Z" fill="#E8E6E1"/>
<path fill-rule="evenodd" clip-rule="evenodd" d="M120.378 267.938H95.1371C93.4288 267.938 92.0308 266.628 92.0308 265.026C92.0308 263.425 93.4288 262.113 95.1371 262.113H120.378C122.086 262.113 123.484 263.425 123.484 265.026C123.484 266.628 122.086 267.938 120.378 267.938Z" fill="#E8E6E1"/>
<path fill-rule="evenodd" clip-rule="evenodd" d="M452 373.367C452 380.766 350.816 386.763 226 386.763C101.184 386.763 0 380.766 0 373.367C0 365.967 101.184 359.969 226 359.969C350.816 359.969 452 365.967 452 373.367Z" fill="#E3ECFA"/>
<path fill-rule="evenodd" clip-rule="evenodd" d="M423.597 110.67H309.155C303.145 110.67 298.227 105.804 298.227 99.8585V69.059C298.227 63.1131 303.145 58.2474 309.155 58.2474H423.597C429.609 58.2474 434.526 63.1131 434.526 69.059V99.8585C434.526 105.804 429.609 110.67 423.597 110.67Z" fill="#0E8A3E"/>
<path fill-rule="evenodd" clip-rule="evenodd" d="M401.155 73.3918H311.794C310.74 73.3918 309.876 72.5434 309.876 71.5071V69.4517C309.876 68.4153 310.74 67.567 311.794 67.567H401.155C402.209 67.567 403.072 68.4153 403.072 69.4517V71.5071C403.072 72.5434 402.209 73.3918 401.155 73.3918Z" fill="#0E8A3E"/>
<path fill-rule="evenodd" clip-rule="evenodd" d="M373.186 87.3711H311.804C310.744 87.3711 309.876 86.5228 309.876 85.4865V83.4299C309.876 82.3936 310.744 81.5464 311.804 81.5464H373.186C374.247 81.5464 375.114 82.3936 375.114 83.4299V85.4865C375.114 86.5228 374.247 87.3711 373.186 87.3711Z" fill="#0E8A3E"/>
<path fill-rule="evenodd" clip-rule="evenodd" d="M356.871 101.351H311.81C310.747 101.351 309.876 100.503 309.876 99.4659V97.4104C309.876 96.3741 310.747 95.5258 311.81 95.5258H356.871C357.934 95.5258 358.804 96.3741 358.804 97.4104V99.4659C358.804 100.503 357.934 101.351 356.871 101.351Z" fill="#0E8A3E"/>
<path fill-rule="evenodd" clip-rule="evenodd" d="M411.624 101.351H366.563C365.499 101.351 364.629 100.503 364.629 99.4659V97.4104C364.629 96.3741 365.499 95.5258 366.563 95.5258H411.624C412.687 95.5258 413.557 96.3741 413.557 97.4104V99.4659C413.557 100.503 412.687 101.351 411.624 101.351Z" fill="#0E8A3E"/>
<path fill-rule="evenodd" clip-rule="evenodd" d="M400.011 73.3918H360.459C359.973 71.4441 359.42 69.4998 358.804 67.567H400.011C401.054 67.567 401.907 68.4153 401.907 69.4517V71.5071C401.907 72.5434 401.054 73.3918 400.011 73.3918Z" fill="#E1EEFF"/>
<path fill-rule="evenodd" clip-rule="evenodd" d="M372.075 87.3711H363.019C362.84 85.428 362.6 83.4861 362.299 81.5464H372.075C373.106 81.5464 373.948 82.3936 373.948 83.4299V85.4865C373.948 86.5228 373.106 87.3711 372.075 87.3711Z" fill="#E1EEFF"/>
<path fill-rule="evenodd" clip-rule="evenodd" d="M411.624 101.351H366.563C365.499 101.351 364.629 100.503 364.629 99.4659V97.4104C364.629 96.3741 365.499 95.5258 366.563 95.5258H411.624C412.687 95.5258 413.557 96.3741 413.557 97.4104V99.4659C413.557 100.503 412.687 101.351 411.624 101.351Z" fill="#E1EEFF"/>
<path fill-rule="evenodd" clip-rule="evenodd" d="M332.299 124.649H202.412C193.601 124.649 186.392 117.407 186.392 108.552V62.6953C186.392 53.8409 193.601 46.5979 202.412 46.5979H332.299C341.11 46.5979 348.319 53.8409 348.319 62.6953V108.552C348.319 117.407 341.11 124.649 332.299 124.649Z" fill="#0E8A3E"/>
<path fill-rule="evenodd" clip-rule="evenodd" d="M336.196 67.567H205.505C203.963 67.567 202.701 66.3792 202.701 64.9287V62.0507C202.701 60.5991 203.963 59.4124 205.505 59.4124H336.196C337.739 59.4124 339 60.5991 339 62.0507V64.9287C339 66.3792 337.739 67.567 336.196 67.567Z" fill="#0E8A3E"/>
<path fill-rule="evenodd" clip-rule="evenodd" d="M295.406 88.5361H205.523C203.972 88.5361 202.701 87.3494 202.701 85.8989V83.0197C202.701 81.5692 203.972 80.3814 205.523 80.3814H295.406C296.958 80.3814 298.227 81.5692 298.227 83.0197V85.8989C298.227 87.3494 296.958 88.5361 295.406 88.5361Z" fill="#0E8A3E"/>
<path fill-rule="evenodd" clip-rule="evenodd" d="M270.955 109.505H205.509C203.965 109.505 202.701 108.318 202.701 106.867V103.989C202.701 102.538 203.965 101.351 205.509 101.351H270.955C272.501 101.351 273.763 102.538 273.763 103.989V106.867C273.763 108.318 272.501 109.505 270.955 109.505Z" fill="#0E8A3E"/>
<path fill-rule="evenodd" clip-rule="evenodd" d="M341.997 109.505H287.075C285.52 109.505 284.248 108.318 284.248 106.867V103.989C284.248 102.538 285.52 101.351 287.075 101.351H341.997C343.552 101.351 344.825 102.538 344.825 103.989V106.867C344.825 108.318 343.552 109.505 341.997 109.505Z" fill="#0E8A3E"/>
<path fill-rule="evenodd" clip-rule="evenodd" d="M251.193 245.804H189.157C185.074 245.804 181.732 242.445 181.732 238.339V144.929C181.732 140.824 185.074 137.464 189.157 137.464H251.193C255.278 137.464 258.619 140.824 258.619 144.929V238.339C258.619 242.445 255.278 245.804 251.193 245.804Z" fill="#0E8A3E"/>
<path fill-rule="evenodd" clip-rule="evenodd" d="M251.193 246.969H189.157C185.074 246.969 181.732 243.584 181.732 239.446V151.937C183.171 151.003 184.607 150.063 186.039 149.113C188.694 153.287 191.625 157.195 194.796 160.828H192.002C191.249 160.828 190.632 161.454 190.632 162.217V164.277C190.632 165.041 191.249 165.664 192.002 165.664H199.321C201.746 168.084 204.286 170.358 206.925 172.483H192.002C191.249 172.483 190.632 173.106 190.632 173.87V175.931C190.632 176.694 191.249 177.318 192.002 177.318H213.487C217.292 179.88 221.257 182.154 225.36 184.136H221.306C220.553 184.136 219.936 184.76 219.936 185.523V187.584C219.936 188.347 220.553 188.97 221.306 188.97H237.392C244.263 191.206 251.388 192.662 258.619 193.29V239.446C258.619 241.797 257.541 243.904 255.86 245.286C254.583 246.338 252.958 246.969 251.193 246.969Z" fill="#0E8A3E"/>
<path fill-rule="evenodd" clip-rule="evenodd" d="M249.086 153.773H192.429C191.672 153.773 191.052 153.171 191.052 152.436V150.451C191.052 149.715 191.672 149.113 192.429 149.113H249.086C249.844 149.113 250.464 149.715 250.464 150.451V152.436C250.464 153.171 249.844 153.773 249.086 153.773Z" fill="#F8F6F4"/>
<path fill-rule="evenodd" clip-rule="evenodd" d="M231.594 165.423H192.448C191.68 165.423 191.052 164.822 191.052 164.086V162.101C191.052 161.366 191.68 160.763 192.448 160.763H231.594C232.361 160.763 232.99 161.366 232.99 162.101V164.086C232.99 164.822 232.361 165.423 231.594 165.423Z" fill="#E1EEFF"/>
<path fill-rule="evenodd" clip-rule="evenodd" d="M249.086 177.072H192.429C191.672 177.072 191.052 176.47 191.052 175.735V173.749C191.052 173.013 191.672 172.412 192.429 172.412H249.086C249.844 172.412 250.464 173.013 250.464 173.749V175.735C250.464 176.47 249.844 177.072 249.086 177.072Z" fill="#E1EEFF"/>
<path fill-rule="evenodd" clip-rule="evenodd" d="M213.003 188.722H192.4C191.659 188.722 191.052 188.12 191.052 187.385V185.399C191.052 184.664 191.659 184.062 192.4 184.062H213.003C213.744 184.062 214.351 184.664 214.351 185.399V187.385C214.351 188.12 213.744 188.722 213.003 188.722Z" fill="#E1EEFF"/>
<path fill-rule="evenodd" clip-rule="evenodd" d="M242.126 188.722H221.523C220.782 188.722 220.175 188.121 220.175 187.386V185.399C220.175 184.664 220.782 184.062 221.523 184.062H242.126C242.867 184.062 243.474 184.664 243.474 185.399V187.386C243.474 188.121 242.867 188.722 242.126 188.722Z" fill="#E1EEFF"/>
<path fill-rule="evenodd" clip-rule="evenodd" d="M249.086 200.371H192.429C191.672 200.371 191.052 199.77 191.052 199.034V197.048C191.052 196.313 191.672 195.711 192.429 195.711H249.086C249.844 195.711 250.464 196.313 250.464 197.048V199.034C250.464 199.77 249.844 200.371 249.086 200.371Z" fill="#E1EEFF"/>
<path fill-rule="evenodd" clip-rule="evenodd" d="M249.086 212.021H192.429C191.672 212.021 191.052 211.419 191.052 210.684V208.699C191.052 207.963 191.672 207.361 192.429 207.361H249.086C249.844 207.361 250.464 207.963 250.464 208.699V210.684C250.464 211.419 249.844 212.021 249.086 212.021Z" fill="#E1EEFF"/>
<path fill-rule="evenodd" clip-rule="evenodd" d="M238.615 223.67H192.417C191.666 223.67 191.052 223.068 191.052 222.333V220.347C191.052 219.612 191.666 219.01 192.417 219.01H238.615C239.365 219.01 239.98 219.612 239.98 220.347V222.333C239.98 223.068 239.365 223.67 238.615 223.67Z" fill="#E1EEFF"/>
<path fill-rule="evenodd" clip-rule="evenodd" d="M214.14 235.32H192.427C191.671 235.32 191.052 234.718 191.052 233.982V231.997C191.052 231.262 191.671 230.66 192.427 230.66H214.14C214.896 230.66 215.516 231.262 215.516 231.997V233.982C215.516 234.718 214.896 235.32 214.14 235.32Z" fill="#E1EEFF"/>
<path fill-rule="evenodd" clip-rule="evenodd" d="M268.087 137.464H181.732L219.872 167.854L278.423 189.887V147.804C278.423 142.117 273.773 137.464 268.087 137.464Z" fill="#0E8A3E"/>
<path fill-rule="evenodd" clip-rule="evenodd" d="M263.897 159.598H200.916C199.975 159.598 199.206 158.786 199.206 157.793V154.413C199.206 153.42 199.975 152.608 200.916 152.608H263.897C264.839 152.608 265.608 153.42 265.608 154.413V157.793C265.608 158.786 264.839 159.598 263.897 159.598Z" fill="#F8F6F4"/>
<path fill-rule="evenodd" clip-rule="evenodd" d="M295.897 219.851V158.758C295.897 154.095 299.689 150.278 304.324 150.278H409.788C414.423 150.278 418.217 154.095 418.217 158.758V219.851C418.217 224.516 414.423 228.33 409.788 228.33H304.324C299.689 228.33 295.897 224.516 295.897 219.851Z" fill="#2B61CA"/>
<path fill-rule="evenodd" clip-rule="evenodd" d="M314.536 200.047V138.954C314.536 134.29 318.33 130.474 322.965 130.474H428.429C433.064 130.474 436.856 134.29 436.856 138.954V200.047C436.856 204.712 433.064 208.526 428.429 208.526H322.965C318.33 208.526 314.536 204.712 314.536 200.047Z" fill="#0E8A3E"/>
<path fill-rule="evenodd" clip-rule="evenodd" d="M428.871 208.334H350.018C350.248 205.334 350.489 202.578 350.71 200.034H375.002C376.591 200.034 377.891 198.736 377.891 197.147V168.394C377.891 166.805 376.591 165.507 375.002 165.507H360.52C361.264 164.676 361.987 163.81 362.693 162.905C364.147 160.918 365.552 158.762 366.433 156.003C366.865 154.628 367.163 153.065 367.067 151.333C367.015 150.471 366.85 149.574 366.56 148.699C366.414 148.262 366.239 147.832 366.034 147.417L365.601 146.57C363.468 142.411 361.051 138.392 358.29 134.619C357.729 133.844 357.162 133.076 356.583 132.314C356.83 131.702 357.069 131.09 357.303 130.474H428.871C433.523 130.474 437.328 134.28 437.328 138.933V199.876C437.328 204.529 433.523 208.334 428.871 208.334ZM384.473 179.002C384.473 181.075 386.169 182.771 388.243 182.771H422.822C424.895 182.771 426.591 181.075 426.591 179.002V141.492C426.591 139.42 424.895 137.724 422.822 137.724H388.243C386.169 137.724 384.473 139.42 384.473 141.492V179.002ZM345.903 167.127C345.812 167.016 345.636 166.952 345.437 166.952C345.396 166.952 345.355 166.955 345.313 166.96L345.268 166.966C344.576 162.862 344.014 159.109 343.66 154.988C346.946 150.695 349.853 146.15 352.36 141.408C354.545 144.346 356.597 147.386 358.511 150.511L358.894 151.133L359.042 151.391C359.13 151.571 359.198 151.78 359.245 152.034C359.346 152.538 359.335 153.234 359.171 154.017C358.842 155.588 358.061 157.417 357.054 159.165C356.073 160.946 354.882 162.705 353.587 164.409C353.315 164.775 353.038 165.141 352.755 165.507H348.497C347.362 165.507 346.374 166.169 345.903 167.127Z" fill="#FDC748"/>
<path fill-rule="evenodd" clip-rule="evenodd" d="M384.433 180.261V142.43C384.433 140.34 386.122 138.629 388.187 138.629H422.619C424.682 138.629 426.371 140.34 426.371 142.43V180.261C426.371 182.351 424.682 184.062 422.619 184.062H388.187C386.122 184.062 384.433 182.351 384.433 180.261Z" fill="#0E8A3E"/>
<path fill-rule="evenodd" clip-rule="evenodd" d="M422.619 184.062H388.187C386.122 184.062 384.433 182.351 384.433 180.261V142.43C384.433 140.34 386.122 138.629 388.187 138.629H422.619C424.682 138.629 426.371 140.34 426.371 142.43V180.261C426.371 182.351 424.682 184.062 422.619 184.062Z" fill="#FCEDFF"/>
<path fill-rule="evenodd" clip-rule="evenodd" d="M345.99 198.613V169.511C345.99 167.902 347.303 166.588 348.909 166.588H375.689C377.295 166.588 378.608 167.902 378.608 169.511V198.613C378.608 200.221 377.295 201.536 375.689 201.536H348.909C347.303 201.536 345.99 200.221 345.99 198.613Z" fill="#0E8A3E"/>
<path fill-rule="evenodd" clip-rule="evenodd" d="M375.089 201.116H350.797C351.862 188.864 352.481 181.525 349.293 175.3C350.364 175.028 351.567 174.576 352.52 173.831L352.523 173.835C355.48 171.684 358.152 169.328 360.607 166.588H375.089C376.678 166.588 377.978 167.887 377.978 169.476V198.228C377.978 199.817 376.678 201.116 375.089 201.116ZM350.499 169.471L346.393 168.799L346.008 168.231C346.003 168.223 345.997 168.215 345.99 168.208C346.462 167.25 347.449 166.588 348.584 166.588H352.842C352.085 167.565 351.291 168.534 350.499 169.471Z" fill="#FCEDFF"/>
<path fill-rule="evenodd" clip-rule="evenodd" d="M226 30.2887H307.546V18.6392H226V30.2887Z" fill="#0E8A3E"/>
<path fill-rule="evenodd" clip-rule="evenodd" d="M86.2063 115.249C85.2051 117.544 84.0908 120.109 83.1181 122.586C82.1352 125.091 81.1489 127.596 80.27 130.123C78.4676 135.158 76.9327 140.26 75.9372 145.264L75.6046 147.132L75.488 147.841C75.4526 148.033 75.4492 148.299 75.4218 148.525C75.3692 149.518 75.3909 150.719 75.4926 151.948C75.7075 154.422 76.0938 157.065 76.5818 159.714C77.5464 165.017 78.7705 170.487 79.982 175.863L74.1188 178.237C71.3838 173.1 69.0752 167.886 67.1528 162.318C66.2076 159.53 65.3447 156.677 64.7367 153.58C64.4349 152.026 64.1618 150.419 64.0921 148.593C64.0852 148.116 64.0601 147.676 64.0795 147.166C64.0978 146.668 64.1195 146.107 64.1606 145.774L64.3847 143.457C64.739 140.397 65.2693 137.401 65.9539 134.498C66.5973 131.572 67.4214 128.731 68.2957 125.921C69.1803 123.111 70.1552 120.351 71.2364 117.637C71.7724 116.277 72.3313 114.929 72.9096 113.584C73.4868 112.214 74.0743 110.948 74.7806 109.505L86.2063 115.249Z" fill="#ED975D"/>
<path fill-rule="evenodd" clip-rule="evenodd" d="M80.3303 173.577L85.0411 178.147L74.7696 182.897C74.7696 182.897 72.2766 178.57 73.997 174.658L80.3303 173.577Z" fill="#E6776F"/>
<path fill-rule="evenodd" clip-rule="evenodd" d="M88.536 185.14L79.9151 188.722L74.5566 183.056L84.7649 178.237L88.536 185.14Z" fill="#E6776F"/>
<path fill-rule="evenodd" clip-rule="evenodd" d="M278.669 171.247V147.053C278.669 142.11 275.043 137.956 270.268 137.017L277.142 131.639H294.021C292.578 135.453 291.672 138.991 291.672 138.991L294.732 140.449C294.338 141.496 293.95 142.548 293.57 143.606C291.99 147.947 290.522 152.329 289.317 156.903C289.162 157.47 289.02 158.05 288.884 158.635L288.676 159.51L288.566 159.986C288.522 160.211 288.474 160.433 288.443 160.664C288.145 162.504 288.478 164.544 289.262 166.141C289.691 167.007 290.182 167.762 290.714 168.429C286.739 169.7 282.708 170.636 278.669 171.247Z" fill="#FEFCFB"/>
<path fill-rule="evenodd" clip-rule="evenodd" d="M297.401 124.602H286.577L287.856 123.532H298.227C297.947 123.843 297.671 124.203 297.401 124.602Z" fill="#F8F6F4"/>
<path fill-rule="evenodd" clip-rule="evenodd" d="M298.59 123.754H287.742L305.265 109.753H318.265C319.348 113.185 319.29 116.665 314.425 118.522C310.204 119.47 305.674 120.841 302.861 121.739C302.02 121.936 301.104 122.244 300.084 122.653C299.576 122.857 299.077 123.239 298.59 123.754ZM330.388 116.432C328.723 115.213 327.899 112.68 327.528 109.753H341.793C342.086 109.753 342.368 109.708 342.633 109.624C342.248 111.843 341.763 114.044 341.184 116.215C340.122 116.181 338.912 116.158 337.611 116.158C335.385 116.158 332.888 116.227 330.388 116.432ZM343.589 101.729C343.102 101.321 342.475 101.076 341.794 101.076H327.376C327.445 99.7464 327.531 98.5243 327.595 97.5062L324.344 101.076H316.128L342.029 80.3814C343.2 85.7507 343.768 91.17 343.767 96.5509C343.767 98.2809 343.707 100.01 343.589 101.729Z" fill="#5FC787"/>
<path fill-rule="evenodd" clip-rule="evenodd" d="M341.745 110.028H327.48C327.126 107.227 327.189 104.064 327.328 101.351H341.745C342.427 101.351 343.053 101.596 343.54 102.004C343.36 104.658 343.039 107.291 342.585 109.899C342.319 109.983 342.038 110.028 341.745 110.028ZM318.216 110.028H305.217L316.079 101.351H324.295L317.702 108.588C317.889 109.065 318.064 109.546 318.216 110.028Z" fill="#E1EEFF"/>
<path fill-rule="evenodd" clip-rule="evenodd" d="M267.91 173.577C256.605 173.577 245.473 171.061 235.319 166.302L243.207 159.959H265.316C266.272 159.959 267.053 159.173 267.053 158.212V154.939C267.053 153.978 266.272 153.191 265.316 153.191H251.623L271.179 137.464C275.959 138.43 279.587 142.703 279.587 147.787V172.675C275.696 173.281 271.794 173.577 267.91 173.577Z" fill="#5FC787"/>
<path fill-rule="evenodd" clip-rule="evenodd" d="M263.911 159.598H242.309L250.532 152.608H263.911C264.845 152.608 265.608 153.42 265.608 154.413V157.793C265.608 158.786 264.845 159.598 263.911 159.598Z" fill="#F8F6F4"/>
<path fill-rule="evenodd" clip-rule="evenodd" d="M210.304 136.89H201.973C200.61 134.713 199.346 132.451 198.185 130.1C197.729 129.175 197.292 128.245 196.876 127.31L201.663 123.485C201.754 123.487 201.844 123.487 201.935 123.487H216.624V131.841L210.304 136.89ZM216.916 131.608V123.487H227.079L216.916 131.608Z" fill="#FEFCFB"/>
<path fill-rule="evenodd" clip-rule="evenodd" d="M217.118 131.639V123.485H217.409V131.412L217.118 131.639Z" fill="#E0DED8"/>
<path fill-rule="evenodd" clip-rule="evenodd" d="M323.856 45.433H322.691V44.268C323.085 44.6517 323.472 45.0391 323.856 45.433Z" fill="#EEEBE7"/>
<path fill-rule="evenodd" clip-rule="evenodd" d="M228.116 124.18H202.973C202.882 124.18 202.792 124.18 202.701 124.178L220.219 110.18H245.638L228.116 124.18ZM256.498 101.502H231.08L246.39 89.2688H271.809L256.498 101.502ZM282.669 80.5911H257.25L272.559 68.3592H297.979L282.669 80.5911ZM308.838 59.6815H283.419L299.793 46.5979H325.032C325.056 46.6259 325.082 46.655 325.107 46.683L308.838 59.6815Z" fill="#5FC787"/>
<path fill-rule="evenodd" clip-rule="evenodd" d="M296.736 67.567H271.433L282.243 59.4124H307.547L296.736 67.567Z" fill="#E1EEFF"/>
<path fill-rule="evenodd" clip-rule="evenodd" d="M271.107 88.5361H245.804L256.614 80.3814H281.918L271.107 88.5361Z" fill="#E1EEFF"/>
<path fill-rule="evenodd" clip-rule="evenodd" d="M245.479 109.505H220.175L230.987 101.351H256.289L245.479 109.505Z" fill="#E1EEFF"/>
<path fill-rule="evenodd" clip-rule="evenodd" d="M205.556 142.124C204.563 140.618 203.609 139.061 202.701 137.464H210.856L205.556 142.124Z" fill="#5FC787"/>
<path fill-rule="evenodd" clip-rule="evenodd" d="M217.409 45.433H217.118V38.6754C217.214 38.5977 217.311 38.5199 217.409 38.4433V45.433Z" fill="#E0DED8"/>
<path fill-rule="evenodd" clip-rule="evenodd" d="M231.097 45.433H231.388V29.1237H231.097V45.433Z" fill="#E0DED8"/>
<path fill-rule="evenodd" clip-rule="evenodd" d="M276.093 31.4536V29.1237H278.423L276.093 31.4536Z" fill="#F8F6F4"/>
<path fill-rule="evenodd" clip-rule="evenodd" d="M191.101 100.186C191.068 99.2607 191.052 98.3347 191.052 97.4122C191.059 78.8 197.774 60.6562 209.989 46.5979H257.454L241.132 59.7795H206.102C204.563 59.7795 203.304 61.0517 203.304 62.608V65.6936C203.304 67.2487 204.563 68.5222 206.102 68.5222H230.307L215.047 80.8458H206.102C204.563 80.8458 203.304 82.1192 203.304 83.6743V86.7611C203.304 87.7998 203.866 88.7129 204.698 89.2047L191.101 100.186Z" fill="#5FC787"/>
<path fill-rule="evenodd" clip-rule="evenodd" d="M230.144 67.567H205.545C203.982 67.567 202.701 66.3792 202.701 64.9287V62.0507C202.701 60.5991 203.982 59.4124 205.545 59.4124H241.144L230.144 67.567Z" fill="#E1EEFF"/>
<path fill-rule="evenodd" clip-rule="evenodd" d="M204.085 88.5361C203.259 88.0563 202.701 87.1655 202.701 86.1522V83.1409C202.701 81.6238 203.951 80.3814 205.477 80.3814H214.351L204.085 88.5361Z" fill="#E1EEFF"/>
<path fill-rule="evenodd" clip-rule="evenodd" d="M300.557 151.443C301.283 149.502 302.034 147.559 302.794 145.619C303.063 146.733 303.353 147.906 303.664 149.141C303.79 149.638 303.919 150.145 304.051 150.663H304.017C302.781 150.663 301.607 150.943 300.557 151.443Z" fill="#FEFCFB"/>
<path fill-rule="evenodd" clip-rule="evenodd" d="M297.664 166.588C296.792 165.687 296.161 164.77 295.985 164.07C295.857 163.568 295.879 163.256 295.982 162.845L296.367 161.534C296.518 161.006 296.675 160.477 296.85 159.942C297.78 157.007 298.79 154.059 299.849 151.108C300.916 150.576 302.109 150.278 303.365 150.278H303.4C303.861 152.154 304.368 154.159 304.921 156.294C304.984 156.533 305.046 156.777 305.109 157.02V157.019C305.509 158.549 305.932 160.142 306.382 161.81C304.458 163.039 302.463 164.187 300.401 165.249C299.495 165.716 298.579 166.164 297.664 166.588Z" fill="#9787FF"/>
<path fill-rule="evenodd" clip-rule="evenodd" d="M278.268 29.1237H230.66C231.479 28.6769 232.307 28.2442 233.148 27.8234C244.032 22.3823 255.578 19.8041 266.945 19.8041C273.606 19.8041 280.204 20.6883 286.577 22.4L278.268 29.1237Z" fill="#5FC787"/>
<path fill-rule="evenodd" clip-rule="evenodd" d="M196.778 128.034C195.955 126.184 195.213 124.321 194.546 122.442C196.66 123.532 199.044 124.166 201.565 124.208L196.778 128.034ZM264.129 46.6282H256.801L264.129 40.7732V46.6282Z" fill="#FBFAF8"/>
<path fill-rule="evenodd" clip-rule="evenodd" d="M202.383 124.178C199.862 124.136 197.477 123.502 195.364 122.412C192.733 114.986 191.324 107.363 191.051 99.7872L204.693 88.8879C205.108 89.1302 205.589 89.2688 206.101 89.2688H246.072L230.762 101.502H206.101C204.558 101.502 203.294 102.766 203.294 104.309V107.372C203.294 108.917 204.558 110.18 206.101 110.18H219.901L202.383 124.178ZM256.932 80.5911H215.075L230.385 68.3592H272.241L256.932 80.5911ZM283.101 59.6815H241.244L257.619 46.5979H299.475L283.101 59.6815Z" fill="#58AA78"/>
<path fill-rule="evenodd" clip-rule="evenodd" d="M272.283 67.567H230.66L241.459 59.4124H283.082L272.283 67.567Z" fill="white"/>
<path fill-rule="evenodd" clip-rule="evenodd" d="M246.556 88.5361H206.444C205.93 88.5361 205.447 88.4058 205.031 88.1781L215.449 80.3814H257.453L246.556 88.5361Z" fill="white"/>
<path fill-rule="evenodd" clip-rule="evenodd" d="M219.605 109.505H205.559C203.988 109.505 202.701 108.318 202.701 106.867V103.989C202.701 102.538 203.988 101.351 205.559 101.351H230.66L219.605 109.505Z" fill="white"/>
<path fill-rule="evenodd" clip-rule="evenodd" d="M302.887 30.2887H278.423L286.524 23.299C292.206 24.9247 297.701 27.2706 302.887 30.2887Z" fill="#58AA78"/>
<path fill-rule="evenodd" clip-rule="evenodd" d="M287.057 124.095H227.165L244.687 110.095H270.9C272.445 110.095 273.707 108.832 273.707 107.287V104.224C273.707 102.681 272.445 101.417 270.9 101.417H255.547L270.858 89.1838H294.881C296.425 89.1838 297.688 87.921 297.688 86.3774V83.3136C297.688 81.7701 296.425 80.5061 294.881 80.5061H281.717L297.027 68.2741H336.332C336.711 68.2741 337.072 68.1984 337.402 68.0609C339.105 72.2198 340.414 76.4567 341.344 80.7228L315.443 101.417H286.583C285.039 101.417 283.776 102.681 283.776 104.224V107.287C283.776 108.832 285.039 110.095 286.583 110.095H304.581L287.057 124.095ZM333.32 59.5964H307.887L324.155 46.5979C327.598 50.5308 330.677 54.8714 333.32 59.5964Z" fill="#58AA78"/>
<path fill-rule="evenodd" clip-rule="evenodd" d="M336.755 67.567H297.062L308.029 59.4124H333.713C334.365 60.4972 334.991 61.6029 335.588 62.7305C336.401 64.2642 337.149 65.8089 337.835 67.3667C337.502 67.4959 337.138 67.567 336.755 67.567Z" fill="white"/>
<path fill-rule="evenodd" clip-rule="evenodd" d="M295.424 88.5361H271.433L282.278 80.3814H295.424C296.966 80.3814 298.227 81.5692 298.227 83.0197V85.8989C298.227 87.3494 296.966 88.5361 295.424 88.5361Z" fill="white"/>
<path fill-rule="evenodd" clip-rule="evenodd" d="M270.945 109.505H244.639L255.538 101.351H270.945C272.497 101.351 273.763 102.538 273.763 103.989V106.867C273.763 108.318 272.497 109.505 270.945 109.505Z" fill="white"/>
<path fill-rule="evenodd" clip-rule="evenodd" d="M304.912 109.505H287.036C285.502 109.505 284.248 108.318 284.248 106.867V103.989C284.248 102.538 285.502 101.351 287.036 101.351H315.701L304.912 109.505Z" fill="white"/>
<path fill-rule="evenodd" clip-rule="evenodd" d="M234.521 166.08C230.713 164.308 227.045 162.219 223.56 159.83H242.343L234.521 166.08ZM250.69 153.162H215.167C211.459 149.762 208.06 145.967 205.031 141.791L210.446 137.464H268.053C268.748 137.464 269.427 137.534 270.085 137.665L250.69 153.162Z" fill="#58AA78"/>
<path fill-rule="evenodd" clip-rule="evenodd" d="M242.252 159.598H223.772C220.885 157.489 218.123 155.156 215.516 152.608H250.464L242.252 159.598Z" fill="white"/>
<path fill-rule="evenodd" clip-rule="evenodd" d="M314.169 8.80468C310.38 6.76136 306.422 4.9487 302.398 3.41796L302.813 2.3299C306.882 3.87811 310.889 5.71174 314.722 7.77952L314.169 8.80468ZM186.494 37.382L185.555 36.6924C194.996 23.8628 207.634 13.306 222.103 6.16374L222.618 7.20753C208.316 14.2683 195.824 24.7027 186.494 37.382ZM172.35 64.5754L171.247 64.2015C173.169 58.5317 175.59 53.0226 178.444 47.8293L179.465 48.3908C176.644 53.5247 174.251 58.9697 172.35 64.5754Z" fill="#0E8A3E"/>
<path fill-rule="evenodd" clip-rule="evenodd" d="M172.342 64.0722L171.248 63.708C173.155 58.1861 175.557 52.8207 178.39 47.7629L179.402 48.3097C176.603 53.3097 174.229 58.6127 172.342 64.0722Z" fill="#0E8A3E"/>
<path fill-rule="evenodd" clip-rule="evenodd" d="M187.336 37.2783L186.392 36.5835C195.887 23.6572 208.599 13.0209 223.152 5.82474L223.67 6.8764C214.763 11.2814 206.555 16.9893 199.366 23.7312C194.945 27.8768 190.91 32.4144 187.336 37.2783Z" fill="#0E8A3E"/>
<path fill-rule="evenodd" clip-rule="evenodd" d="M315.126 9.31959C311.187 7.11377 307.071 5.15696 302.887 3.50449L303.318 2.3299C307.549 4.00123 311.716 5.98068 315.701 8.21291L315.126 9.31959Z" fill="#0E8A3E"/>
<path fill-rule="evenodd" clip-rule="evenodd" d="M76.6802 207.502C75.8379 207.502 74.97 207.453 74.0777 207.354C72.3244 207.138 70.4989 206.776 68.4137 205.887C62.7788 203.485 59.404 198 59.4121 192.239C59.4133 191.026 59.5647 189.802 59.8758 188.591C60.4384 186.395 61.2609 184.726 62.1556 183.203C63.0619 181.703 64.0614 180.391 65.153 179.267C67.3221 176.988 69.8431 175.424 72.5364 174.206C75.4907 172.782 78.4334 171.331 81.3831 169.895C81.2002 173.171 81.079 175.608 81.1407 176.991C87.852 176.991 113.123 176.991 126.915 176.991C128.453 165.606 129.426 155.924 129.984 147.706C137.767 144.378 145.594 141.143 153.477 138.02C161.12 135.007 168.805 132.078 176.588 129.348C172.763 118.691 170.924 107.706 170.922 96.8468C170.913 61.1796 190.699 26.8707 224.845 10.0151C238.613 3.21992 253.213 0 267.594 0C303.259 0 337.567 19.8006 354.421 53.9441C361.225 67.7254 364.443 82.3421 364.439 96.735C364.438 101.736 364.046 106.709 363.281 111.611C362.572 116.151 361.544 120.632 360.205 125.014C359.383 127.709 358.443 130.366 357.39 132.979C356.905 132.342 356.411 131.71 355.907 131.087L357.307 130.013C357.307 130.013 350.382 117.071 345.835 116.637C345.772 116.631 345.709 116.626 345.646 116.622C345.127 116.582 343.581 116.474 341.444 116.406C343.145 110.025 344.024 103.414 344.027 96.742C344.029 87.0881 342.193 77.3048 338.346 67.9107C337.667 66.2529 336.926 64.6092 336.121 62.9771C335.529 61.7772 334.91 60.6006 334.264 59.4462C328.882 49.8237 321.682 41.7867 313.31 35.5554C310.33 33.3373 307.202 31.3476 303.955 29.5967C298.646 26.7356 293.022 24.5117 287.205 22.9705C280.844 21.2836 274.259 20.4122 267.611 20.4122C256.265 20.4122 244.741 22.953 233.878 28.3152C233.038 28.73 232.212 29.1563 231.395 29.5967C226.505 32.233 222.012 35.3364 217.946 38.8196C217.849 38.9023 217.752 38.9862 217.655 39.07C200.775 53.682 191.322 74.9155 191.313 96.7991C191.31 108.155 193.85 119.687 199.216 130.558C212.519 157.505 239.588 173.131 267.733 173.131C275.586 173.131 283.525 171.914 291.269 169.386C292.714 171.236 294.461 172.418 296.099 173.421C300.722 176.007 305.315 177.27 310.18 178.018L310.702 175.87C310.735 176.006 310.88 176.106 311.072 176.141C310.837 177.704 310.445 180.35 309.949 183.796C305.395 186.011 300.751 187.834 296.055 189.281C295.317 189.508 294.579 189.726 293.838 189.934C292.791 190.23 291.74 190.508 290.688 190.765C288.622 191.273 286.553 191.71 284.476 192.077C278.914 193.059 273.325 193.54 267.768 193.539C265.008 193.539 262.258 193.421 259.521 193.186C252.239 192.561 245.063 191.113 238.142 188.891C221.837 183.656 206.924 174.12 195.242 160.912C192.047 157.299 189.095 153.414 186.422 149.265C184.98 150.208 183.533 151.144 182.084 152.072C176.594 155.585 171.05 158.988 165.482 162.339C155.315 168.432 145.04 174.303 134.684 180.011C132.586 181.156 130.488 182.297 128.386 183.434C127.482 179.395 126.915 176.991 126.915 176.991H110.678C110.678 176.991 91.8023 176.991 81.1407 176.991C81.1407 185.509 82.3837 195.551 83.784 206.267C82.2801 206.802 80.7039 207.188 79.0252 207.369C78.2656 207.458 77.484 207.502 76.6802 207.502ZM310.085 173.246C306.443 171.703 302.756 169.889 299.94 167.676C299.475 167.316 299.038 166.934 298.649 166.548C299.59 166.13 300.532 165.688 301.464 165.228C303.585 164.181 305.637 163.049 307.615 161.837C308.516 165.043 309.52 168.514 310.635 172.269L310.519 172.284C310.202 172.325 309.965 172.513 309.965 172.709C309.965 172.728 309.968 172.746 309.972 172.764L310.085 173.246ZM344.467 155.653C344.201 152.562 344.051 149.263 344.051 145.453C344.051 142.997 344.113 140.329 344.244 137.366C345.17 138.277 345.809 138.837 345.809 138.837L345.81 138.835L345.995 138.694L348.777 136.559C349.884 137.865 350.98 139.188 352.019 140.557C352.405 141.06 352.788 141.566 353.167 142.074C350.66 146.815 347.753 151.361 344.467 155.653Z" fill="#FDC748"/>
<path fill-rule="evenodd" clip-rule="evenodd" d="M95.1026 78.0515C96.317 84.2449 97.5279 95.5943 93.1958 99.7271C93.1958 99.7271 94.8883 106.01 106.395 106.01C119.047 106.01 112.441 99.7282 112.441 99.7282C105.537 98.0779 105.714 92.954 106.917 88.1414L95.1026 78.0515Z" fill="#FFB27D"/>
<path fill-rule="evenodd" clip-rule="evenodd" d="M88.3387 103.68C89.7451 101.457 87.3711 96.0739 87.3711 96.0739C87.3711 96.0739 108.347 90.7267 116.917 98.9265C118.696 100.627 116.72 103.122 116.72 103.122L88.3387 103.68Z" fill="#0E8A3E"/>
<path fill-rule="evenodd" clip-rule="evenodd" d="M117.653 100.186C116.312 100.001 114.899 99.8361 113.469 99.717C111.162 99.5244 108.197 99.4508 105.093 99.4508C101.155 99.4508 96.9914 99.5699 93.6617 99.716C92.0004 99.7895 90.3202 99.9161 88.7099 100.07C88.4193 98.0452 87.3711 95.9049 87.3711 95.9049C87.3711 95.9049 94.091 94.3608 101.477 94.3608C107.142 94.3608 113.198 95.2687 116.916 98.4748C117.469 98.9509 117.66 99.4952 117.66 100.02C117.659 100.076 117.657 100.131 117.653 100.186Z" fill="#0E8A3E"/>
<path fill-rule="evenodd" clip-rule="evenodd" d="M50.7418 339.459C51.5946 340.438 52.9517 341.538 53.5389 341.399C53.5948 341.385 53.7672 341.344 53.8371 340.97C53.8674 340.81 53.8289 340.664 53.7206 340.521C53.2581 339.914 51.6982 339.588 50.7418 339.459ZM53.4385 341.813C52.3528 341.813 50.6193 340.001 50.1091 339.324L50.0928 339.105L50.2873 339C50.4085 339.01 53.2649 339.256 54.0431 340.276C54.2214 340.51 54.2866 340.77 54.2353 341.044C54.1386 341.568 53.8532 341.74 53.6307 341.794L53.4385 341.813Z" fill="#0E8A3E"/>
<path fill-rule="evenodd" clip-rule="evenodd" d="M50.7356 338.51C51.8353 338.553 53.5839 338.147 53.8588 337.642C53.8832 337.596 53.9427 337.488 53.7586 337.296C53.6176 337.148 53.4417 337.077 53.2192 337.077H53.2181C52.4492 337.077 51.3483 337.942 50.7356 338.51ZM50.8779 338.914C50.6345 338.914 50.419 338.897 50.2477 338.865L50.0928 338.727L50.1394 338.526C50.2128 338.449 51.9346 336.67 53.2183 336.67H53.2195C53.5538 336.671 53.8346 336.788 54.0524 337.016C54.3903 337.37 54.2994 337.681 54.2144 337.836C53.8299 338.542 52.0441 338.914 50.8779 338.914Z" fill="#0E8A3E"/>
<path fill-rule="evenodd" clip-rule="evenodd" d="M128.96 367.315C130.551 367.541 132.716 367.527 133.116 366.975C133.168 366.903 133.22 366.779 133.075 366.527C132.996 366.387 132.866 366.294 132.678 366.243C131.803 366.002 130.005 366.779 128.96 367.315ZM130.929 367.857C129.907 367.857 128.851 367.724 128.305 367.617L128.144 367.45L128.243 367.242C128.369 367.168 131.356 365.461 132.784 365.852C133.076 365.931 133.293 366.091 133.427 366.326C133.667 366.744 133.569 367.039 133.445 367.212C133.089 367.705 132.028 367.857 130.929 367.857Z" fill="#0E8A3E"/>
<path fill-rule="evenodd" clip-rule="evenodd" d="M130.433 363.87C130.177 363.87 129.945 363.956 129.73 364.133C129.014 364.72 128.709 366.1 128.6 366.772C129.654 366.138 131.045 364.684 130.951 364.103C130.944 364.056 130.92 363.913 130.556 363.876L130.433 363.87ZM128.346 367.338L128.227 367.301L128.144 367.117C128.153 367.019 128.384 364.714 129.472 363.82C129.804 363.547 130.183 363.429 130.596 363.473C131.153 363.528 131.314 363.812 131.351 364.038C131.507 365.006 129.462 366.857 128.428 367.322L128.346 367.338Z" fill="#0E8A3E"/>
<path fill-rule="evenodd" clip-rule="evenodd" d="M118.825 366.959H127.3L128.144 347.155H119.668L118.825 366.959Z" fill="#FFB27D"/>
<path fill-rule="evenodd" clip-rule="evenodd" d="M43.103 333.291L50.368 337.835L66.402 324.906L59.1358 320.361L43.103 333.291Z" fill="#FFB27D"/>
<path fill-rule="evenodd" clip-rule="evenodd" d="M51.0356 337.019L43.6242 331.013C43.3549 330.794 42.9671 330.789 42.6931 331.003L36.5855 335.748C35.9516 336.238 35.9586 337.196 36.5901 337.69C39.2138 339.743 40.5953 340.613 43.8541 343.254C45.859 344.88 50.8452 349.835 53.614 352.079C56.3224 354.276 58.9891 351.909 58.058 350.744C53.8868 345.524 52.2023 341.055 51.7739 338.289C51.6961 337.79 51.4303 337.338 51.0356 337.019Z" fill="#20282E"/>
<path fill-rule="evenodd" clip-rule="evenodd" d="M127.182 366.959H117.791C117.44 366.959 117.136 367.192 117.059 367.519L115.361 374.804C115.184 375.561 115.786 376.277 116.597 376.263C119.984 376.208 124.879 376.018 129.138 376.018C134.116 376.018 138.415 376.278 144.253 376.278C147.782 376.278 148.763 372.876 147.285 372.567C140.558 371.165 135.066 371.015 129.252 367.597C128.621 367.225 127.924 366.959 127.182 366.959Z" fill="#20282E"/>
<path fill-rule="evenodd" clip-rule="evenodd" d="M76.5867 103.48C69.3258 107.016 65.2373 130.259 65.2373 130.259L82.9804 137.464C82.9804 137.464 86.9732 127.843 89.2545 117.576C91.6452 106.82 84.0105 99.8639 76.5867 103.48Z" fill="#0A1629"/>
<path fill-rule="evenodd" clip-rule="evenodd" d="M85.3783 116.323C80.9571 120.903 78.936 129.878 78.0518 135.714L82.3351 137.464C82.3351 137.464 86.2166 128.08 88.5363 117.909C88.1573 115.418 87.2157 114.42 85.3783 116.323Z" fill="#23273A"/>
<path fill-rule="evenodd" clip-rule="evenodd" d="M126.25 102.856C126.25 102.856 135.406 113.178 126.759 177.072C112.894 177.072 87.4896 177.072 80.7429 177.072C80.4267 170.022 84.864 135.631 78.0518 102.413C78.0518 102.413 85.9391 100.833 93.4551 100.472C99.3352 100.189 107.848 100.002 113.017 100.473C119.832 101.093 126.25 102.856 126.25 102.856Z" fill="#0A1629"/>
<path fill-rule="evenodd" clip-rule="evenodd" d="M129.285 127.518L121.819 114.165C120.375 121.479 119.761 126.003 120.066 133.212C120.268 137.8 124.322 154.787 127.943 157.268C129.082 144.781 129.409 135.055 129.285 127.518Z" fill="#23273A"/>
<path fill-rule="evenodd" clip-rule="evenodd" d="M131.438 111.835C132.564 117.437 133.753 123.169 134.976 128.801C136.197 134.445 137.481 140.067 138.967 145.52C139.352 146.862 139.708 148.24 140.132 149.538L140.44 150.527L140.593 151.021L140.54 150.961C140.451 150.861 140.36 150.851 140.429 150.954C140.52 151.185 141.243 151.685 142.184 152.044C143.136 152.413 144.301 152.738 145.535 152.985C150.53 153.936 156.414 154.073 161.998 154.057L163.093 160.317C161.547 160.81 160.103 161.173 158.589 161.523C157.089 161.878 155.574 162.183 154.035 162.416C150.956 162.892 147.808 163.196 144.447 163.06C142.762 162.99 141.019 162.83 139.15 162.371C137.291 161.891 135.234 161.239 133.08 159.551C132.027 158.708 130.983 157.543 130.238 156.124C130.048 155.784 129.885 155.389 129.742 155.057L129.104 153.421C128.515 151.96 128.031 150.521 127.503 149.07C125.553 143.278 123.939 137.497 122.504 131.69C121.092 125.865 119.853 120.09 118.825 114.135L131.438 111.835Z" fill="#FFB27D"/>
<path fill-rule="evenodd" clip-rule="evenodd" d="M114.542 109.377C112.168 117.31 121.792 140.959 121.792 140.959L140.959 135.99C140.959 135.99 140.223 123.705 135.857 113.952C129.27 99.2405 117.39 99.854 114.542 109.377Z" fill="#0A1629"/>
<path fill-rule="evenodd" clip-rule="evenodd" d="M161.629 155.186L171.247 154.938L166.622 165.408C166.622 165.408 162.709 165.953 159.494 160.421L156.103 156.195L160.003 155.376C160.538 155.264 161.083 155.2 161.629 155.186Z" fill="#FFB27D"/>
<path fill-rule="evenodd" clip-rule="evenodd" d="M177.072 156.86L171.674 165.423L166.587 165.27L171.121 154.938L177.072 156.86Z" fill="#FFB27D"/>
<path fill-rule="evenodd" clip-rule="evenodd" d="M128.144 347.155L127.691 357.639H118.825L119.278 347.155H128.144Z" fill="#ED975D"/>
<path fill-rule="evenodd" clip-rule="evenodd" d="M58.1519 320.361L65.2371 325.087L57.178 332.01L50.0928 327.285L58.1519 320.361Z" fill="#ED975D"/>
<path fill-rule="evenodd" clip-rule="evenodd" d="M95.5485 71.936C96.0643 80.4709 95.9333 85.4923 100.228 89.8758C106.69 96.4711 117.2 92.5707 119.238 84.0546C121.073 76.3887 119.922 63.719 111.593 60.317C103.386 56.9631 95.0339 63.4024 95.5485 71.936Z" fill="#FFB27D"/>
<path fill-rule="evenodd" clip-rule="evenodd" d="M85.3108 70.3417C87.4314 77.9767 92.4264 86.7716 98.8821 87.3297C106.905 88.0236 110.526 79.888 111.581 71.4809C116.391 68.2497 113.864 64.6997 118.688 64.2475C124.871 63.6675 122.898 52.5562 114.745 50.768C114.745 50.768 117.474 55.7736 111.745 53.2489C106.018 50.7231 100.417 49.6391 94.2352 50.2674C94.2352 50.2674 101.541 53.8519 94.3958 55.4514C87.2497 57.0509 85.1103 61.3833 88.3997 63.9966C88.3997 63.9966 83.9134 65.3153 85.3108 70.3417Z" fill="#075A27"/>
<path fill-rule="evenodd" clip-rule="evenodd" d="M107.184 73.5359C107.325 75.805 108.413 77.9396 109.722 79.336C111.69 81.4361 113.744 80.1289 114.091 77.5693C114.405 75.2669 113.758 71.399 111.352 70.2418C108.981 69.1013 107.025 70.9407 107.184 73.5359Z" fill="#FFB27D"/>
<path fill-rule="evenodd" clip-rule="evenodd" d="M109.862 177.072C109.862 177.072 118.222 237.343 111.636 261.489C101.204 299.733 61.2915 332.01 61.2915 332.01L47.7627 323.182C47.7627 323.182 81.7457 295.924 85.9066 263.916C89.6437 235.16 80.2607 200.399 80.2607 177.072C90.9454 177.072 109.862 177.072 109.862 177.072Z" fill="#0E8A3E"/>
<path fill-rule="evenodd" clip-rule="evenodd" d="M66.0815 328.515L52.4229 319.658C61.771 311.111 83.2648 289.027 86.5306 264.058C87.1553 259.276 87.4165 254.328 87.4165 249.295C87.4165 235.058 85.333 220.134 83.5107 206.332C82.0966 195.621 80.8413 185.585 80.8413 177.072C91.6082 177.072 110.67 177.072 110.67 177.072H96.6811C96.6811 177.072 102.506 195.229 107.521 216.138C108.17 227.652 108.646 240.791 108.646 253.148C108.646 260.487 108.479 267.549 108.081 273.832C108.434 273.033 108.775 272.231 109.104 271.424C103.283 285.689 93.9587 298.731 85.1165 309.05C79.2507 315.896 73.5967 321.541 69.3167 325.551C68.1226 326.67 67.0368 327.661 66.0815 328.515Z" fill="#0E8A3E"/>
<path fill-rule="evenodd" clip-rule="evenodd" d="M111.245 265.048C111.25 265.034 111.255 265.019 111.259 265.004C111.254 265.02 111.25 265.033 111.245 265.048Z" fill="#166F38"/>
<path fill-rule="evenodd" clip-rule="evenodd" d="M111.075 265.589C111.195 265.214 111.314 264.839 111.429 264.463C111.314 264.839 111.196 265.214 111.075 265.589Z" fill="#166F38"/>
<path fill-rule="evenodd" clip-rule="evenodd" d="M111.251 263.867C111.252 263.863 111.253 263.858 111.254 263.855C111.253 263.857 111.252 263.864 111.251 263.867Z" fill="#166F38"/>
<path fill-rule="evenodd" clip-rule="evenodd" d="M113.129 257.454C113.495 255.647 113.794 253.696 114.036 251.629C114.036 251.631 114.036 251.63 114.036 251.632C113.91 252.702 113.769 253.743 113.612 254.747C113.465 255.68 113.305 256.584 113.129 257.454Z" fill="#166F38"/>
<path fill-rule="evenodd" clip-rule="evenodd" d="M113.317 210.824C109.39 206.41 106.01 203.866 106.01 203.866C107.432 223.317 108.597 252.13 107.304 272.598C109.04 268.657 110.508 264.6 111.639 260.487C114.843 248.767 114.505 228.508 113.317 210.824Z" fill="#0E8A3E"/>
<path fill-rule="evenodd" clip-rule="evenodd" d="M107.766 273.763C108.186 267.42 108.362 260.29 108.362 252.881C108.362 240.405 107.861 227.14 107.175 215.515C110.251 227.785 113.039 240.994 114.165 252.086C113.745 255.567 113.163 258.731 112.386 261.445C112.022 262.709 111.624 263.969 111.197 265.221C110.804 266.372 110.385 267.514 109.942 268.651C109.271 270.373 108.544 272.078 107.766 273.763Z" fill="#0E8A3E"/>
<path fill-rule="evenodd" clip-rule="evenodd" d="M66.4023 329.616L61.2214 333.175L46.5981 323.18L51.1565 319.196L66.4023 329.616Z" fill="#0E8A3E"/>
<path fill-rule="evenodd" clip-rule="evenodd" d="M61.2214 333.175L46.5981 323.18L51.1565 319.196L66.4023 329.616L61.2214 333.175Z" fill="#0E8A3E"/>
<path fill-rule="evenodd" clip-rule="evenodd" d="M126.992 177.072C126.992 177.072 139.972 231.818 140.887 257.97C141.911 287.298 131.625 356.474 131.625 356.474H117.026C117.026 356.474 115.229 286.758 114.579 260.046C113.871 230.922 96.6909 177.072 96.6909 177.072H126.992Z" fill="#0E8A3E"/>
<path fill-rule="evenodd" clip-rule="evenodd" d="M116.892 350.649C116.464 334.06 115.121 281.968 114.579 259.744C114.521 257.403 114.357 254.903 114.104 252.281C113.04 241.305 110.406 228.236 107.5 216.097C102.499 195.21 96.6909 177.072 96.6909 177.072H126.992C126.992 177.072 139.972 231.619 140.887 257.675C140.935 259.059 140.959 260.533 140.959 262.083C140.959 262.619 140.957 263.166 140.951 263.72C140.83 276.154 139.367 293.013 137.635 308.909C137.014 314.61 136.358 320.188 135.717 325.393C135.341 328.449 134.969 331.375 134.613 334.124C134.601 334.219 134.588 334.319 134.575 334.415C133.736 340.882 132.983 346.337 132.447 350.124L116.892 350.649Z" fill="#0E8A3E"/>
<path fill-rule="evenodd" clip-rule="evenodd" d="M133.969 350.649L133.164 356.474H115.799L115.33 351.275L133.969 350.649Z" fill="#0E8A3E"/>
<path fill-rule="evenodd" clip-rule="evenodd" d="M133.164 356.474H115.799L115.33 351.275L133.969 350.649L133.164 356.474Z" fill="#0E8A3E"/>
<path fill-rule="evenodd" clip-rule="evenodd" d="M349.853 124.649C350.86 125.581 351.642 126.374 352.476 127.265C353.285 128.137 354.079 129.015 354.852 129.908C356.395 131.693 357.829 133.558 359.215 135.452C362.011 139.224 364.46 143.242 366.62 147.4L367.059 148.247C367.267 148.662 367.444 149.091 367.591 149.528C367.885 150.403 368.052 151.299 368.105 152.161C368.202 153.893 367.9 155.456 367.462 156.831C366.57 159.588 365.148 161.744 363.675 163.731C360.6 167.626 357.189 170.776 353.286 173.577L350.342 170.246C351.734 168.66 353.169 166.947 354.452 165.235C355.764 163.531 356.97 161.772 357.963 159.991C358.984 158.244 359.774 156.416 360.108 154.845C360.273 154.062 360.285 153.367 360.183 152.862C360.135 152.609 360.066 152.4 359.977 152.22L359.827 151.962L359.439 151.34C357.165 147.675 354.7 144.126 352.047 140.723C350.732 139.013 349.328 137.374 347.923 135.75C347.223 134.936 346.506 134.14 345.783 133.359C345.071 132.607 344.287 131.774 343.66 131.151L349.853 124.649Z" fill="#FFB27D"/>
<path fill-rule="evenodd" clip-rule="evenodd" d="M351.119 169.279L342.495 167.753L347.002 175.907C347.002 175.907 352.556 175.7 354.144 172.217L351.119 169.279Z" fill="#FFB27D"/>
<path fill-rule="evenodd" clip-rule="evenodd" d="M335.505 171.141L339.47 177.072L345.99 175.074L341.65 167.753L335.505 171.141Z" fill="#E6776F"/>
<path fill-rule="evenodd" clip-rule="evenodd" d="M349.182 366.2L348.919 366.247C348.851 366.277 348.772 366.334 348.747 366.508C348.702 366.833 348.771 367.073 348.958 367.244C349.399 367.647 350.541 367.699 352.063 367.396C351.127 366.83 349.853 366.2 349.182 366.2ZM350.345 368.006C349.673 368.006 349.052 367.889 348.68 367.55C348.388 367.283 348.272 366.913 348.338 366.452C348.386 366.102 348.588 365.943 348.749 365.87C349.765 365.416 352.416 367.123 352.715 367.318L352.805 367.527L352.649 367.692C352.033 367.838 351.151 368.006 350.345 368.006Z" fill="#0E8A3E"/>
<path fill-rule="evenodd" clip-rule="evenodd" d="M351.507 363.88L351.413 363.886C351.148 363.919 351.091 364.035 351.073 364.134C350.951 364.732 351.942 366.147 352.772 366.81C352.724 365.974 352.529 364.562 351.963 364.061C351.826 363.941 351.676 363.88 351.507 363.88ZM352.991 367.419L352.889 367.393C352.056 366.92 350.469 365.036 350.666 364.051C350.703 363.864 350.844 363.539 351.363 363.476C351.695 363.427 351.985 363.528 352.238 363.752C353.186 364.591 353.199 367.105 353.199 367.212L353.095 367.391L352.991 367.419Z" fill="#0E8A3E"/>
<path fill-rule="evenodd" clip-rule="evenodd" d="M309.653 366.203C309.492 366.203 309.361 366.225 309.267 366.277C309.182 366.324 309.139 366.392 309.13 366.501C309.104 366.78 309.183 366.996 309.368 367.164C309.896 367.639 311.336 367.723 313.267 367.401C312.07 366.827 310.48 366.203 309.653 366.203ZM311.209 368.009C310.34 368.009 309.54 367.873 309.091 367.471C308.806 367.215 308.681 366.876 308.718 366.463C308.741 366.218 308.861 366.027 309.068 365.915C310.148 365.319 313.617 367.104 314.011 367.31L314.121 367.524L313.955 367.696C313.215 367.844 312.17 368.009 311.209 368.009Z" fill="#0E8A3E"/>
<path fill-rule="evenodd" clip-rule="evenodd" d="M311.994 363.877L311.869 363.884C311.492 363.921 311.467 364.073 311.459 364.122C311.363 364.716 312.759 366.197 313.819 366.84C313.718 366.156 313.428 364.746 312.708 364.146C312.491 363.966 312.257 363.877 311.994 363.877ZM314.073 367.416L313.988 367.398C312.947 366.927 310.89 365.043 311.05 364.055C311.09 363.821 311.254 363.53 311.827 363.472C312.253 363.431 312.637 363.549 312.974 363.829C314.07 364.743 314.271 367.094 314.28 367.193L314.193 367.379L314.073 367.416Z" fill="#0E8A3E"/>
<path fill-rule="evenodd" clip-rule="evenodd" d="M327.984 97.8557C327.641 103.094 326.704 113.734 330.845 116.674C330.845 116.674 330.105 122.038 320.328 123.279C309.577 124.644 314.493 118.752 314.493 118.752C320.177 116.646 319.456 112.44 317.898 108.601L327.984 97.8557Z" fill="#FFB27D"/>
<path fill-rule="evenodd" clip-rule="evenodd" d="M322.691 366.959H313.955L313.371 347.155H322.108L322.691 366.959Z" fill="#FFB27D"/>
<path fill-rule="evenodd" clip-rule="evenodd" d="M363.464 366.959H354.649L351.814 347.155H360.63L363.464 366.959Z" fill="#FFB27D"/>
<path fill-rule="evenodd" clip-rule="evenodd" d="M354.031 365.794H363.946C364.308 365.794 364.6 366.056 364.651 366.424L365.781 374.621C365.898 375.471 365.198 376.276 364.366 376.261C360.909 376.198 359.243 375.987 354.883 375.987C352.2 375.987 348.28 376.278 344.576 376.278C340.954 376.278 340.675 372.45 342.217 372.104C349.134 370.549 350.226 368.406 352.555 366.361C352.977 365.992 353.503 365.794 354.031 365.794Z" fill="#20282E"/>
<path fill-rule="evenodd" clip-rule="evenodd" d="M313.467 365.794H323.207C323.561 365.794 323.849 366.056 323.898 366.424L325.008 374.621C325.123 375.471 324.436 376.276 323.618 376.261C320.222 376.198 318.586 375.987 314.304 375.987C311.669 375.987 306.219 376.278 302.58 376.278C299.021 376.278 298.748 372.45 300.263 372.104C307.055 370.549 309.73 368.406 312.018 366.361C312.431 365.992 312.949 365.794 313.467 365.794Z" fill="#20282E"/>
<path fill-rule="evenodd" clip-rule="evenodd" d="M313.371 347.155L313.679 357.639H322.691L322.383 347.155H313.371Z" fill="#ED975D"/>
<path fill-rule="evenodd" clip-rule="evenodd" d="M360.806 347.155H351.814L353.308 357.639H362.299L360.806 347.155Z" fill="#ED975D"/>
<path fill-rule="evenodd" clip-rule="evenodd" d="M326.959 87.0176C327.551 95.7575 327.986 99.4447 324.248 104.468C318.625 112.025 307.929 110.853 304.778 102.468C301.941 94.9211 301.448 81.8943 309.359 77.3341C317.152 72.8399 326.365 78.2765 326.959 87.0176Z" fill="#FFB27D"/>
<path fill-rule="evenodd" clip-rule="evenodd" d="M331.768 95.0499C336.594 97.7732 340.165 91.0558 340.165 91.0558C340.165 91.0558 331.527 92.0062 332.298 86.7965C333.323 79.8866 328.438 71.4842 316.18 72.5602C315.501 72.62 314.846 72.7057 314.21 72.8125C311.834 71.8069 308.617 71.9137 306.589 74.5901C303.16 74.8834 298.43 79.0887 301.605 84.6363C301.605 84.6363 301.883 83.754 302.631 82.9139C302.892 86.1617 305.704 91.3245 309.199 91.6624C309.953 96.1141 307.037 101.266 308.072 105.906C309.568 112.606 320.716 114.165 320.716 114.165C319.495 110.921 321.37 109 321.37 109C328.947 112.503 333.939 109.081 333.939 109.081C328.776 107.125 330.336 103.654 330.336 103.654C337.254 106.327 340.165 100.037 340.165 100.037C336.482 100.231 333.371 98.1463 331.768 95.0499Z" fill="#075A27"/>
<path fill-rule="evenodd" clip-rule="evenodd" d="M312.203 92.6548C312.26 94.4277 311.489 96.0614 310.471 97.1071C308.94 98.6821 307.071 97.5823 306.571 95.5655C306.122 93.7501 306.376 90.7428 308.358 89.9225C310.311 89.1149 312.14 90.6277 312.203 92.6548Z" fill="#FFB27D"/>
<path fill-rule="evenodd" clip-rule="evenodd" d="M320.361 173.458C320.361 173.458 322.553 230.817 327.745 264.502C331.939 291.711 350.539 355.309 350.539 355.309H362.299C362.299 355.309 352.607 293.889 350.478 266.978C345.092 198.881 359.067 184.264 345.915 170.082L320.361 173.458Z" fill="#0A1629"/>
<path fill-rule="evenodd" clip-rule="evenodd" d="M330.479 191.073C330.479 191.073 324.828 190.146 321.526 200.36C322.773 219.71 324.84 245.388 327.886 263.89C328.558 268.012 329.586 272.979 330.845 278.423C328.461 245.735 330.479 191.073 330.479 191.073Z" fill="#010205"/>
<path fill-rule="evenodd" clip-rule="evenodd" d="M310.969 174.608C310.969 174.608 301.175 238.089 301.746 264.655C302.339 292.288 312.47 355.309 312.47 355.309H324.254C324.254 355.309 322.389 293.903 323.431 266.765C324.567 237.177 336.67 171.247 336.67 171.247L310.969 174.608Z" fill="#0A1629"/>
<path fill-rule="evenodd" clip-rule="evenodd" d="M364.629 356.474H348.42L347.155 350.649L364.517 350.782L364.629 356.474Z" fill="#0E8A3E"/>
<path fill-rule="evenodd" clip-rule="evenodd" d="M364.629 356.474H348.42L347.155 350.649L364.517 350.782L364.629 356.474Z" fill="#0E8A3E"/>
<path fill-rule="evenodd" clip-rule="evenodd" d="M345.102 116.521C349.61 116.953 356.474 129.841 356.474 129.841L345.076 138.629C345.076 138.629 335.639 130.31 336.763 125.637C337.933 120.77 340.771 116.105 345.102 116.521Z" fill="#0E8A3E"/>
<path fill-rule="evenodd" clip-rule="evenodd" d="M345.225 138.71C345.225 138.71 344.586 138.15 343.66 137.239C343.66 137.238 343.66 137.237 343.66 137.236C344.583 138.143 345.22 138.703 345.226 138.708L345.225 138.71ZM345.411 138.567L346.076 138.056L344.052 130.467C344.336 126.368 344.731 121.76 345.25 116.51C345.25 116.51 345.185 116.504 345.062 116.495C345.124 116.5 345.187 116.504 345.25 116.51C349.798 116.945 356.723 129.886 356.723 129.886L355.322 130.96L345.411 138.567Z" fill="#0E8A3E"/>
<path fill-rule="evenodd" clip-rule="evenodd" d="M341.731 121.58C341.731 121.58 339.904 121.043 338.171 121.176C337.566 122.44 337.1 123.838 336.763 125.258C335.634 130.069 345.14 138.629 345.14 138.629L345.99 137.96L341.731 121.58Z" fill="#0E8A3E"/>
<path fill-rule="evenodd" clip-rule="evenodd" d="M345.169 138.629C345.169 138.629 344.554 138.074 343.66 137.172C343.751 135.094 343.875 132.873 344.037 130.474L345.99 137.983L345.169 138.629Z" fill="#0E8A3E"/>
<path fill-rule="evenodd" clip-rule="evenodd" d="M307.261 133.898C303.968 142.263 300.498 150.755 297.738 159.139C297.561 159.664 297.4 160.183 297.246 160.701L296.853 161.988C296.748 162.391 296.726 162.697 296.857 163.19C297.113 164.173 298.325 165.599 299.849 166.782C302.933 169.215 307.072 171.161 311.041 172.797L310.006 177.072C305.181 176.328 300.625 175.072 296.04 172.498C293.823 171.135 291.401 169.441 289.82 166.176C289.048 164.566 288.72 162.508 289.014 160.652C289.045 160.419 289.092 160.196 289.135 159.969L289.244 159.489L289.448 158.607C289.582 158.017 289.722 157.431 289.874 156.86C291.061 152.248 292.507 147.828 294.062 143.45C295.603 139.062 297.254 134.772 299.093 130.474L307.261 133.898Z" fill="#FFB27D"/>
<path fill-rule="evenodd" clip-rule="evenodd" d="M299.861 122.995C299.861 122.995 295.927 124.989 310.833 174.742C324.784 172.915 339.201 171.028 345.99 170.139C343.528 155.896 342.357 147.067 345.353 116.783C345.353 116.783 337.778 116.144 330.167 116.769C324.214 117.259 319.342 117.704 314.203 118.861C307.428 120.385 299.861 122.995 299.861 122.995Z" fill="#0E8A3E"/>
<path fill-rule="evenodd" clip-rule="evenodd" d="M310.428 172.412C308.735 166.732 307.3 161.707 306.084 157.256L306.335 146.672L307.025 147.006C307.025 147.006 311.898 134.794 311.894 128.387C311.891 126.957 311.647 125.815 311.05 125.164C308.948 122.873 307.189 121.811 304.963 121.811C304.316 121.811 303.631 121.901 302.887 122.076C305.71 121.178 310.255 119.807 314.491 118.858C319.648 117.703 324.536 117.258 330.51 116.769C333.019 116.564 335.524 116.495 337.758 116.495C342.322 116.495 345.749 116.783 345.749 116.783C345.228 122.033 344.831 126.64 344.546 130.739C344.378 133.163 344.248 135.408 344.153 137.507C344.153 137.508 344.153 137.51 344.153 137.511C344.021 140.473 343.959 143.142 343.959 145.598C343.96 154.485 344.775 160.592 345.99 167.775L310.428 172.412Z" fill="#0E8A3E"/>
<path fill-rule="evenodd" clip-rule="evenodd" d="M306.382 156.103C305.509 153.576 304.737 151.248 304.052 149.113C304.738 151.249 305.511 153.573 306.382 156.103Z" fill="#166F38"/>
<path fill-rule="evenodd" clip-rule="evenodd" d="M346.297 167.942L348.274 170.749C348.428 170.966 348.174 171.241 347.771 171.291L311.245 175.899C310.931 175.939 310.651 175.824 310.605 175.636L309.883 172.669C309.833 172.464 310.081 172.253 310.424 172.21L345.695 167.76C345.955 167.728 346.198 167.8 346.297 167.942Z" fill="#0E8A3E"/>
<path fill-rule="evenodd" clip-rule="evenodd" d="M311.123 175.907C310.862 175.907 310.646 175.799 310.606 175.636L309.995 173.13L309.883 172.669C309.879 172.651 309.876 172.634 309.876 172.617C309.876 172.429 310.111 172.249 310.425 172.21L345.694 167.76C345.736 167.755 345.776 167.753 345.817 167.753C346.028 167.753 346.212 167.823 346.297 167.942L348.274 170.749C348.305 170.793 348.319 170.838 348.32 170.884C348.321 171.068 348.094 171.251 347.77 171.291L311.245 175.899C311.204 175.905 311.163 175.907 311.123 175.907Z" fill="#075A27"/>
<path fill-rule="evenodd" clip-rule="evenodd" d="M341.389 172.408L342.233 172.28C342.401 172.255 342.516 172.137 342.492 172.018L341.623 167.929C341.598 167.809 341.439 167.732 341.271 167.757L340.428 167.884C340.26 167.91 340.143 168.028 340.169 168.147L341.037 172.235C341.063 172.355 341.221 172.433 341.389 172.408Z" fill="#0A1629"/>
<path fill-rule="evenodd" clip-rule="evenodd" d="M318.089 175.902L318.933 175.776C319.101 175.751 319.218 175.633 319.193 175.512L318.323 171.425C318.299 171.305 318.14 171.227 317.972 171.252L317.129 171.38C316.961 171.404 316.845 171.523 316.87 171.643L317.739 175.731C317.764 175.85 317.921 175.928 318.089 175.902Z" fill="#0A1629"/>
<path fill-rule="evenodd" clip-rule="evenodd" d="M301.722 139.52C302.67 144.107 304.04 149.915 305.959 157.268L306.381 138.629L301.722 139.52Z" fill="#0E8A3E"/>
<path fill-rule="evenodd" clip-rule="evenodd" d="M306.124 157.268C304.813 152.355 303.746 148.115 302.887 144.454L306.382 146.184L306.124 157.267V157.268Z" fill="#0E8A3E"/>
<path fill-rule="evenodd" clip-rule="evenodd" d="M299.331 122.352C294.974 124.137 291.237 139.345 291.237 139.345L306.207 146.784C306.207 146.784 313.451 128.19 310.204 124.565C306.824 120.79 304.341 120.3 299.331 122.352Z" fill="#0E8A3E"/>
<path fill-rule="evenodd" clip-rule="evenodd" d="M306.207 146.784L305.522 146.443L291.237 139.345C291.237 139.345 294.974 124.137 299.33 122.353C301.246 121.568 302.791 121.155 304.159 121.155C306.369 121.155 308.116 122.234 310.203 124.565C310.796 125.227 311.039 126.389 311.041 127.844C311.046 134.361 306.207 146.784 306.207 146.784Z" fill="#0E8A3E"/>
<path fill-rule="evenodd" clip-rule="evenodd" d="M325.629 356.474H309.936L308.711 350.649L326.186 350.782L325.629 356.474Z" fill="#0E8A3E"/>
<path fill-rule="evenodd" clip-rule="evenodd" d="M325.629 356.474H309.936L308.711 350.649L326.186 350.782L325.629 356.474Z" fill="#0E8A3E"/>
<path fill-rule="evenodd" clip-rule="evenodd" d="M311.193 171.946L310.005 171.4C308.725 170.813 307.359 172.008 307.568 173.536L308.427 179.872C308.61 181.22 309.853 182.073 310.998 181.601C311.391 181.438 311.8 181.202 312.192 180.858C313.008 180.146 313.416 178.993 313.367 177.838L313.256 175.213C313.195 173.769 312.391 172.495 311.193 171.946Z" fill="#FFB27D"/>
</svg>
