<svg width="516" height="144" viewBox="0 0 516 144" fill="none" xmlns="http://www.w3.org/2000/svg">
<path fill-rule="evenodd" clip-rule="evenodd" d="M5.59349 112C5.59349 112 -0.12201 75.0709 0.00198885 60.8228C0.0921011 50.3477 3.56831 25.6385 5.40253 13.2899C5.57371 12.1375 7.18614 12.1717 7.30907 13.3302C8.62317 25.7146 11.0887 50.4518 10.9975 60.9203C10.875 75.1669 5.59349 112 5.59349 112Z" fill="#C3F0D5"/>
<path fill-rule="evenodd" clip-rule="evenodd" d="M5.2975 101H5.7025V47H5.2975V101Z" fill="#0E8A3E"/>
<path fill-rule="evenodd" clip-rule="evenodd" d="M7 48.4983C7 49.3273 6.32729 50 5.5 50C4.67101 50 4 49.3273 4 48.4983C4 47.671 4.67101 47 5.5 47C6.32729 47 7 47.671 7 48.4983" fill="#FFFFFE"/>
<path fill-rule="evenodd" clip-rule="evenodd" d="M20.5942 112C20.5942 112 14.8794 75.0709 15.0019 60.8228C15.0931 50.348 18.569 25.6398 20.4031 13.2908C20.5742 12.1384 22.1867 12.1726 22.3096 13.3312C23.6236 25.7158 26.0886 50.4521 25.9975 60.9203C25.875 75.1669 20.5942 112 20.5942 112Z" fill="#C3F0D5"/>
<path fill-rule="evenodd" clip-rule="evenodd" d="M20.2975 101H20.7025V47H20.2975V101Z" fill="#0E8A3E"/>
<path fill-rule="evenodd" clip-rule="evenodd" d="M22 48.4983C22 49.3273 21.329 50 20.5 50C19.6727 50 19 49.3273 19 48.4983C19 47.671 19.6727 47 20.5 47C21.329 47 22 47.671 22 48.4983" fill="#FFFFFE"/>
<path fill-rule="evenodd" clip-rule="evenodd" d="M35.5942 112C35.5942 112 29.8794 75.0709 30.0019 60.8228C30.0931 50.3483 33.5688 25.641 35.403 13.2918C35.5741 12.1393 37.1867 12.1735 37.3096 13.3321C38.6232 25.7171 41.0876 50.4523 40.9976 60.9203C40.8736 75.1669 35.5942 112 35.5942 112Z" fill="#C3F0D5"/>
<path fill-rule="evenodd" clip-rule="evenodd" d="M35.298 101H35.702V47H35.298V101Z" fill="#0E8A3E"/>
<path fill-rule="evenodd" clip-rule="evenodd" d="M37 48.4983C37 49.3273 36.329 50 35.5 50C34.671 50 34 49.3273 34 48.4983C34 47.671 34.671 47 35.5 47C36.329 47 37 47.671 37 48.4983" fill="#FFFFFE"/>
<path fill-rule="evenodd" clip-rule="evenodd" d="M20.5272 95H2L10.1348 144H30.8652L39 95H20.5272" fill="#F2BBB8"/>
<path fill-rule="evenodd" clip-rule="evenodd" d="M2 95L10.1348 144H30.8652L39 95H20.5272H2Z" fill="#FDC748"/>
<mask id="mask0_94_3083" style="mask-type:alpha" maskUnits="userSpaceOnUse" x="2" y="95" width="37" height="49">
<path fill-rule="evenodd" clip-rule="evenodd" d="M2 95L10.1348 144H30.8652L39 95H20.5272H2Z" fill="white"/>
</mask>
<g mask="url(#mask0_94_3083)">
<path fill-rule="evenodd" clip-rule="evenodd" d="M2 100.702H27.862V100.298H2V100.702Z" fill="white" fill-opacity="0.762538"/>
</g>
<path fill-rule="evenodd" clip-rule="evenodd" d="M65.5765 30.6794L79.2898 37.074C81.2597 37.9926 83.5999 37.1408 84.5185 35.171L90.9131 21.4576C91.8314 19.4884 90.9799 17.1475 89.0101 16.2289L75.2967 9.83429C73.3275 8.91606 70.9863 9.7682 70.0681 11.7374L63.6734 25.4507C62.7549 27.4206 63.6073 29.7611 65.5765 30.6794" fill="#0E8A3E"/>
<path fill-rule="evenodd" clip-rule="evenodd" d="M73.7958 27.3739L74.7246 29.9261L86.7907 25.5345L85.8612 22.982L73.7958 27.3739" fill="#FFFFFE"/>
<path fill-rule="evenodd" clip-rule="evenodd" d="M76.7652 29.0227L74.2129 29.9516L69.8213 17.8857L72.3735 16.9567L76.7652 29.0227" fill="#FFFFFE"/>
<path opacity="0.412365" fill-rule="evenodd" clip-rule="evenodd" d="M151.177 20.3385C158.916 21.9382 163.893 29.5086 162.295 37.2478C160.695 44.9882 153.125 49.9652 145.386 48.3665C137.646 46.7669 132.668 39.1966 134.268 31.4572C135.866 23.717 143.438 18.7399 151.177 20.3385" fill="#0E8A3E"/>
<path fill-rule="evenodd" clip-rule="evenodd" d="M150.688 22.7032C157.122 24.033 161.26 30.3261 159.93 36.76C158.601 43.1938 152.307 47.3318 145.873 46.002C139.44 44.672 135.303 38.3789 136.631 31.9452C137.961 25.5112 144.254 21.3734 150.688 22.7032" fill="#F4F9FD"/>
<path fill-rule="evenodd" clip-rule="evenodd" d="M138.231 31.8277C138.469 31.8773 138.621 32.1095 138.573 32.3461C138.523 32.584 138.291 32.7361 138.054 32.6873C137.816 32.6378 137.664 32.4065 137.713 32.1689C137.762 31.9311 137.994 31.7792 138.231 31.8277" fill="#0E8A3E"/>
<path fill-rule="evenodd" clip-rule="evenodd" d="M138.315 37.1913C138.546 37.1149 138.794 37.2398 138.87 37.4697C138.946 37.6993 138.821 37.9477 138.591 38.024C138.362 38.1002 138.113 37.9753 138.037 37.7456C137.961 37.5149 138.086 37.2675 138.315 37.1913" fill="#0E8A3E"/>
<path fill-rule="evenodd" clip-rule="evenodd" d="M141.07 41.7932C141.231 41.6121 141.508 41.5959 141.69 41.7573C141.871 41.9187 141.887 42.1958 141.725 42.3769C141.564 42.558 141.287 42.5742 141.106 42.4128C140.925 42.2513 140.909 41.9743 141.07 41.7932" fill="#0E8A3E"/>
<path fill-rule="evenodd" clip-rule="evenodd" d="M145.756 44.402C145.806 44.1652 146.038 44.0121 146.274 44.0608C146.512 44.1104 146.665 44.3424 146.615 44.5793C146.567 44.8169 146.335 44.97 146.097 44.9204C145.859 44.8719 145.707 44.6396 145.756 44.402" fill="#0E8A3E"/>
<path fill-rule="evenodd" clip-rule="evenodd" d="M151.119 44.3181C151.043 44.0874 151.168 43.84 151.398 43.7638C151.628 43.6873 151.876 43.8124 151.952 44.0421C152.028 44.2718 151.903 44.5202 151.674 44.5964C151.444 44.6726 151.196 44.5477 151.119 44.3181" fill="#0E8A3E"/>
<path fill-rule="evenodd" clip-rule="evenodd" d="M155.721 41.5634C155.54 41.4029 155.524 41.1249 155.685 40.9438C155.847 40.7627 156.124 40.7475 156.305 40.908C156.486 41.0694 156.502 41.3464 156.341 41.5275C156.18 41.7084 155.902 41.7248 155.721 41.5634" fill="#0E8A3E"/>
<path fill-rule="evenodd" clip-rule="evenodd" d="M158.33 36.8775C158.093 36.8278 157.94 36.5957 157.99 36.3589C158.038 36.1213 158.271 35.9691 158.508 36.0177C158.745 36.0664 158.898 36.2995 158.849 36.5363C158.8 36.7739 158.568 36.926 158.33 36.8775" fill="#0E8A3E"/>
<path fill-rule="evenodd" clip-rule="evenodd" d="M158.246 31.514C158.016 31.5902 157.768 31.4653 157.692 31.2357C157.616 31.006 157.741 30.7576 157.97 30.6814C158.201 30.6049 158.448 30.73 158.525 30.9597C158.601 31.1904 158.476 31.4378 158.246 31.514" fill="#0E8A3E"/>
<path fill-rule="evenodd" clip-rule="evenodd" d="M155.492 26.9119C155.331 27.093 155.054 27.1091 154.873 26.9477C154.692 26.7863 154.676 26.5093 154.836 26.3284C154.997 26.1473 155.275 26.1309 155.456 26.2925C155.638 26.4537 155.653 26.7309 155.492 26.9119" fill="#0E8A3E"/>
<path fill-rule="evenodd" clip-rule="evenodd" d="M150.806 24.3032C150.757 24.5409 150.525 24.693 150.287 24.6444C150.049 24.5949 149.897 24.3627 149.946 24.126C149.995 23.8882 150.228 23.7361 150.464 23.7848C150.702 23.8334 150.854 24.0656 150.806 24.3032" fill="#0E8A3E"/>
<path fill-rule="evenodd" clip-rule="evenodd" d="M145.443 24.387C145.518 24.6168 145.394 24.865 145.164 24.9414C144.934 25.0177 144.686 24.8928 144.609 24.6631C144.533 24.4334 144.658 24.185 144.888 24.1088C145.118 24.0324 145.367 24.1573 145.443 24.387" fill="#0E8A3E"/>
<path fill-rule="evenodd" clip-rule="evenodd" d="M140.84 27.1419C141.021 27.3023 141.037 27.5803 140.876 27.7614C140.715 27.9413 140.437 27.9577 140.256 27.7973C140.075 27.6359 140.059 27.3588 140.221 27.1777C140.382 26.9966 140.659 26.9804 140.84 27.1419" fill="#0E8A3E"/>
<path fill-rule="evenodd" clip-rule="evenodd" d="M147.616 34.1843L148.298 34.7934L144.649 38.8788L143.967 38.2697L147.616 34.1843" fill="#41825B"/>
<path fill-rule="evenodd" clip-rule="evenodd" d="M148.429 34.063L147.782 34.2633L145.347 26.3963L145.994 26.196L148.429 34.063" fill="#41825B"/>
<path fill-rule="evenodd" clip-rule="evenodd" d="M148.703 32.3106C149.831 32.5436 150.556 33.6466 150.323 34.7748C150.09 35.902 148.987 36.6277 147.859 36.3947C146.731 36.1615 146.006 35.0587 146.239 33.9305C146.472 32.8033 147.575 32.0776 148.703 32.3106" fill="#41825B"/>
<path fill-rule="evenodd" clip-rule="evenodd" d="M499.81 119.576C501.684 119.205 506.742 115.309 510.864 104.547C513.218 98.3993 519.856 66.6976 510.864 64.4716C501.871 62.2444 503.558 78.2009 503.558 92.8578C503.558 101.795 499.81 119.576 499.81 119.576" fill="#FEE4A9"/>
<path fill-rule="evenodd" clip-rule="evenodd" d="M495.689 121.06C500.418 120.748 499.435 73.3769 499.81 62.2444C500.186 51.1119 502.433 9.55204 496.063 2.8728C489.694 -3.80644 483.137 2.13123 482.575 10.758C482.308 14.8481 483.7 44.6187 484.448 53.1531C485.198 61.6876 486.135 80.9837 486.884 93.2298C487.634 105.475 490.068 121.431 495.689 121.06" fill="#FEE4A9"/>
<path fill-rule="evenodd" clip-rule="evenodd" d="M486.884 121.616C486.884 121.616 476.386 101.105 473.77 85.2509C469.087 56.8635 468.15 29.219 474.52 29.5897C480.889 29.9618 481.35 57.7949 481.639 69.6664C482.387 100.466 489.694 119.761 489.694 119.761L486.884 121.616" fill="#FEE4A9"/>
<path fill-rule="evenodd" clip-rule="evenodd" d="M487.764 120.776L488.251 120.602C488.214 120.5 484.515 110.333 482.069 103.533C477.269 90.1825 476.471 72.4303 476.465 72.2531L475.947 72.2746C475.955 72.4531 476.755 90.28 481.582 103.706C484.028 110.506 487.727 120.674 487.764 120.776" fill="#0E8A3E"/>
<path fill-rule="evenodd" clip-rule="evenodd" d="M494.119 117.906H494.636C494.636 111.571 493.522 93.0299 493.512 92.8426L492.995 92.8742C493.006 93.0603 494.119 111.586 494.119 117.906" fill="#DC9F11"/>
<path fill-rule="evenodd" clip-rule="evenodd" d="M501.641 119.395C501.681 119.3 505.608 109.818 507.836 101.272C510.068 92.7034 509.535 84.5726 509.529 84.4916L509.012 84.5271C509.019 84.6068 509.545 92.6591 507.335 101.143C505.116 109.655 501.203 119.105 501.164 119.2L501.641 119.395" fill="#DC9F11"/>
<path fill-rule="evenodd" clip-rule="evenodd" d="M491.567 93.2298C491.567 93.998 492.197 94.6206 492.972 94.6206C493.748 94.6206 494.378 93.998 494.378 93.2298C494.378 92.4604 493.748 91.8378 492.972 91.8378C492.197 91.8378 491.567 92.4604 491.567 93.2298" fill="#FFFFFE"/>
<path fill-rule="evenodd" clip-rule="evenodd" d="M507.866 84.6941C507.866 85.4635 508.495 86.0861 509.271 86.0861C510.047 86.0861 510.676 85.4635 510.676 84.6941C510.676 83.926 510.047 83.3033 509.271 83.3033C508.495 83.3033 507.866 83.926 507.866 84.6941" fill="#FFFFFE"/>
<path fill-rule="evenodd" clip-rule="evenodd" d="M474.801 72.2632C474.801 73.0327 475.43 73.6553 476.206 73.6553C476.981 73.6553 477.611 73.0327 477.611 72.2632C477.611 71.4951 476.981 70.8725 476.206 70.8725C475.43 70.8725 474.801 71.4951 474.801 72.2632" fill="#FFFFFE"/>
<mask id="mask1_94_3083" style="mask-type:alpha" maskUnits="userSpaceOnUse" x="483" y="115" width="23" height="28">
<path fill-rule="evenodd" clip-rule="evenodd" d="M505.616 115.309H483.889L487.675 142.898H501.83L505.616 115.309V115.309Z" fill="white"/>
</mask>
<g mask="url(#mask1_94_3083)">
<path fill-rule="evenodd" clip-rule="evenodd" d="M483.889 119.854H505.616V117.627H483.889V119.854Z" fill="#FADFDC"/>
</g>
<path fill-rule="evenodd" clip-rule="evenodd" d="M506 115H484L487.834 143H502.166L506 115" fill="#0E8A3E"/>
<mask id="mask2_94_3083" style="mask-type:alpha" maskUnits="userSpaceOnUse" x="484" y="115" width="22" height="28">
<path fill-rule="evenodd" clip-rule="evenodd" d="M506 115H484L487.834 143H502.166L506 115" fill="white"/>
</mask>
<g mask="url(#mask2_94_3083)">
<path fill-rule="evenodd" clip-rule="evenodd" d="M480 118.702H505.862V118.298H480V118.702Z" fill="#CFE0FF"/>
</g>
<path fill-rule="evenodd" clip-rule="evenodd" d="M424.384 40.5169L442.175 30.2449C444.73 28.7699 445.606 25.5032 444.131 22.9475L433.859 5.15592C432.384 2.60115 429.116 1.72562 426.561 3.20062L408.77 13.4726C406.214 14.9481 405.34 18.2151 406.815 20.7699L417.087 38.5615C418.562 41.1172 421.828 41.9924 424.384 40.5169" fill="#FDC748"/>
<path fill-rule="evenodd" clip-rule="evenodd" d="M426.676 28.6269L430.166 29.5621L434.587 13.0618L431.097 12.1266L426.676 28.6269" fill="#FFFFFE"/>
<path fill-rule="evenodd" clip-rule="evenodd" d="M431.004 26.1279L430.069 29.618L413.569 25.1968L414.504 21.7066L431.004 26.1279" fill="#FFFFFE"/>
<path fill-rule="evenodd" clip-rule="evenodd" d="M334.332 68.5485C333.466 68.9005 332.479 68.4845 332.126 67.6185C331.773 66.7525 332.189 65.7645 333.055 65.4115L336.799 63.8875C337.665 63.5345 338.653 63.9515 339.005 64.8175C339.358 65.6835 338.942 66.6715 338.076 67.0235L334.332 68.5485" fill="#C3F0D5"/>
<path fill-rule="evenodd" clip-rule="evenodd" d="M352.98 76.4036C353.333 77.2696 354.321 77.6856 355.187 77.3336C356.053 76.9806 356.469 75.9926 356.117 75.1266L354.592 71.3836C354.24 70.5176 353.252 70.1016 352.386 70.4536C351.52 70.8066 351.103 71.7946 351.456 72.6606L352.98 76.4036" fill="#C3F0D5"/>
<path fill-rule="evenodd" clip-rule="evenodd" d="M348.625 39.6765C348.461 38.7635 348.549 37.8965 348.885 37.0985C350.165 34.0605 354.771 33.0895 359.153 34.9355C363.534 36.7815 366.057 40.7545 364.777 43.7935C364.466 44.5325 363.961 45.1625 363.277 45.6665L362.403 44.4785C362.87 44.1345 363.212 43.7115 363.418 43.2215C364.366 40.9705 362.151 37.7985 358.58 36.2945C355.01 34.7905 351.192 35.4205 350.244 37.6715C350.02 38.2025 349.964 38.7895 350.076 39.4175L348.625 39.6765" fill="#C3F0D5"/>
<path fill-rule="evenodd" clip-rule="evenodd" d="M359.721 48.0525L363.665 53.7975L368.135 50.7285L364.191 44.9835L359.721 48.0525" fill="#005923"/>
<path fill-rule="evenodd" clip-rule="evenodd" d="M361.481 44.9595C361.707 44.7575 361.952 44.5705 362.219 44.4055C364.689 42.8695 367.936 43.6265 369.472 46.0975C371.008 48.5675 370.25 51.8145 367.78 53.3505C367.514 53.5165 367.238 53.6535 366.956 53.7665L361.481 44.9595" fill="#0E8A3E"/>
<path fill-rule="evenodd" clip-rule="evenodd" d="M349.336 43.9156L342.47 45.1066L341.543 39.7636L348.409 38.5726L349.336 43.9156" fill="#005923"/>
<path fill-rule="evenodd" clip-rule="evenodd" d="M364.309 64.3926C360.873 72.5476 351.477 76.3746 343.321 72.9386C335.166 69.5026 331.339 60.1066 334.775 51.9506C338.211 43.7946 347.607 39.9686 355.763 43.4046C363.918 46.8406 367.745 56.2366 364.309 64.3926" fill="#0E8A3E"/>
<path fill-rule="evenodd" clip-rule="evenodd" d="M361.818 63.3425C358.962 70.1225 351.15 73.3035 344.371 70.4475C337.591 67.5905 334.41 59.7795 337.266 53.0005C340.122 46.2205 347.934 43.0395 354.713 45.8955C361.493 48.7515 364.674 56.5635 361.818 63.3425" fill="#DCEAFF"/>
<path fill-rule="evenodd" clip-rule="evenodd" d="M354.495 47.6786C354.39 47.9286 354.102 48.0466 353.852 47.9416C353.602 47.8356 353.484 47.5476 353.59 47.2976C353.695 47.0476 353.983 46.9296 354.233 47.0356C354.483 47.1406 354.601 47.4286 354.495 47.6786" fill="#0E8A3E"/>
<path fill-rule="evenodd" clip-rule="evenodd" d="M348.585 46.6076C348.619 46.8776 348.428 47.1226 348.159 47.1566C347.89 47.1906 347.644 46.9996 347.61 46.7306C347.577 46.4616 347.767 46.2156 348.037 46.1816C348.306 46.1476 348.552 46.3386 348.585 46.6076" fill="#0E8A3E"/>
<path fill-rule="evenodd" clip-rule="evenodd" d="M342.932 48.6356C343.096 48.8516 343.053 49.1596 342.837 49.3236C342.621 49.4876 342.313 49.4456 342.149 49.2296C341.985 49.0126 342.027 48.7046 342.243 48.5406C342.46 48.3766 342.768 48.4196 342.932 48.6356" fill="#0E8A3E"/>
<path fill-rule="evenodd" clip-rule="evenodd" d="M339.05 53.2186C339.3 53.3236 339.417 53.6116 339.312 53.8616C339.206 54.1116 338.918 54.2296 338.668 54.1236C338.418 54.0186 338.3 53.7306 338.406 53.4806C338.511 53.2306 338.799 53.1126 339.05 53.2186" fill="#0E8A3E"/>
<path fill-rule="evenodd" clip-rule="evenodd" d="M337.979 59.1276C338.248 59.0946 338.494 59.2856 338.527 59.5546C338.561 59.8236 338.37 60.0696 338.101 60.1036C337.832 60.1366 337.586 59.9466 337.552 59.6766C337.518 59.4076 337.709 59.1616 337.979 59.1276" fill="#0E8A3E"/>
<path fill-rule="evenodd" clip-rule="evenodd" d="M340.006 64.7815C340.222 64.6175 340.53 64.6605 340.695 64.8765C340.858 65.0925 340.816 65.4005 340.6 65.5645C340.383 65.7285 340.075 65.6865 339.911 65.4695C339.747 65.2535 339.79 64.9455 340.006 64.7815" fill="#0E8A3E"/>
<path fill-rule="evenodd" clip-rule="evenodd" d="M344.589 68.6636C344.694 68.4136 344.982 68.2966 345.232 68.4016C345.482 68.5076 345.6 68.7956 345.494 69.0456C345.389 69.2956 345.101 69.4126 344.851 69.3076C344.601 69.2026 344.483 68.9146 344.589 68.6636" fill="#0E8A3E"/>
<path fill-rule="evenodd" clip-rule="evenodd" d="M350.499 69.7345C350.465 69.4655 350.656 69.2195 350.925 69.1865C351.194 69.1525 351.44 69.3435 351.474 69.6125C351.508 69.8815 351.317 70.1275 351.047 70.1615C350.778 70.1955 350.532 70.0045 350.499 69.7345" fill="#0E8A3E"/>
<path fill-rule="evenodd" clip-rule="evenodd" d="M356.152 67.7076C355.988 67.4916 356.031 67.1826 356.247 67.0186C356.463 66.8556 356.771 66.8976 356.935 67.1136C357.099 67.3306 357.057 67.6386 356.841 67.8026C356.624 67.9666 356.316 67.9236 356.152 67.7076" fill="#0E8A3E"/>
<path fill-rule="evenodd" clip-rule="evenodd" d="M360.035 63.1246C359.785 63.0196 359.667 62.7316 359.772 62.4816C359.878 62.2316 360.166 62.1136 360.416 62.2196C360.666 62.3246 360.784 62.6126 360.678 62.8626C360.573 63.1126 360.285 63.2306 360.035 63.1246" fill="#0E8A3E"/>
<path fill-rule="evenodd" clip-rule="evenodd" d="M361.106 57.2146C360.836 57.2486 360.591 57.0576 360.557 56.7886C360.523 56.5196 360.714 56.2736 360.983 56.2396C361.252 56.2056 361.498 56.3966 361.532 56.6666C361.566 56.9356 361.375 57.1816 361.106 57.2146" fill="#0E8A3E"/>
<path fill-rule="evenodd" clip-rule="evenodd" d="M359.078 51.5616C358.862 51.7256 358.553 51.6826 358.39 51.4666C358.226 51.2506 358.268 50.9416 358.484 50.7776C358.701 50.6146 359.009 50.6566 359.173 50.8726C359.337 51.0896 359.294 51.3976 359.078 51.5616" fill="#0E8A3E"/>
<path fill-rule="evenodd" clip-rule="evenodd" d="M349.95 57.3915L349.156 58.0385L345.279 53.2855L346.072 52.6385L349.95 57.3915" fill="#0E8A3E"/>
<path fill-rule="evenodd" clip-rule="evenodd" d="M349.829 58.3966L349.749 57.6416L358.919 56.6736L358.999 57.4286L349.829 58.3966" fill="#0E8A3E"/>
<path fill-rule="evenodd" clip-rule="evenodd" d="M351.694 59.0775C351.193 60.2665 349.824 60.8235 348.636 60.3235C347.447 59.8225 346.89 58.4535 347.39 57.2655C347.891 56.0765 349.26 55.5195 350.448 56.0195C351.637 56.5205 352.194 57.8895 351.694 59.0775" fill="#FDC748"/>
<path fill-rule="evenodd" clip-rule="evenodd" d="M350.32 40.4956C350.307 40.1916 350.269 39.8866 350.201 39.5796C349.574 36.7396 346.764 34.9446 343.924 35.5716C341.083 36.1986 339.289 39.0086 339.915 41.8496C339.983 42.1556 340.078 42.4496 340.193 42.7296L350.32 40.4956" fill="#0E8A3E"/>
</svg>
