<svg width="16" height="16" viewBox="0 0 16 16" fill="none" xmlns="http://www.w3.org/2000/svg">
<path fill-rule="evenodd" clip-rule="evenodd" d="M8.33333 1.33325C4.831 1.33325 2 4.16425 2 7.66659C2 11.1689 4.831 13.9999 8.33333 13.9999C11.8357 13.9999 14.6667 11.1689 14.6667 7.66659C14.6667 4.16425 11.8357 1.33325 8.33333 1.33325ZM11.5 9.94021L10.607 10.8332L8.33333 8.55954L6.05967 10.8332L5.16667 9.94021L7.44033 7.66654L5.16667 5.39288L6.05967 4.49988L8.33333 6.77354L10.607 4.49988L11.5 5.39288L9.22633 7.66654L11.5 9.94021Z" fill="#7D8592"/>
<mask id="mask0_113_2300" style="mask-type:alpha" maskUnits="userSpaceOnUse" x="2" y="1" width="13" height="13">
<path fill-rule="evenodd" clip-rule="evenodd" d="M8.33333 1.33325C4.831 1.33325 2 4.16425 2 7.66659C2 11.1689 4.831 13.9999 8.33333 13.9999C11.8357 13.9999 14.6667 11.1689 14.6667 7.66659C14.6667 4.16425 11.8357 1.33325 8.33333 1.33325ZM11.5 9.94021L10.607 10.8332L8.33333 8.55954L6.05967 10.8332L5.16667 9.94021L7.44033 7.66654L5.16667 5.39288L6.05967 4.49988L8.33333 6.77354L10.607 4.49988L11.5 5.39288L9.22633 7.66654L11.5 9.94021Z" fill="white"/>
</mask>
<g mask="url(#mask0_113_2300)">
</g>
</svg>
