<svg width="13" height="13" viewBox="0 0 13 13" fill="none" xmlns="http://www.w3.org/2000/svg">
<path fill-rule="evenodd" clip-rule="evenodd" d="M5.66667 0C2.53705 0 0 2.53705 0 5.66667C0 8.79628 2.53705 11.3333 5.66667 11.3333C6.98969 11.3333 8.20682 10.8799 9.17114 10.12L9.44003 10.3828L11.5286 12.4714L11.5914 12.5269C11.8529 12.7302 12.2311 12.7117 12.4714 12.4714C12.7318 12.2111 12.7318 11.7889 12.4714 11.5286L10.3774 9.43456L10.1147 9.17788C10.8778 8.21249 11.3333 6.99277 11.3333 5.66667C11.3333 2.53705 8.79628 0 5.66667 0ZM5.66667 1.33333C8.0599 1.33333 10 3.27343 10 5.66667C10 8.0599 8.0599 10 5.66667 10C3.27343 10 1.33333 8.0599 1.33333 5.66667C1.33333 3.27343 3.27343 1.33333 5.66667 1.33333Z" fill="#0A1629"/>
</svg>
