<svg width="18" height="20" viewBox="0 0 18 20" fill="none" xmlns="http://www.w3.org/2000/svg">
<path fill-rule="evenodd" clip-rule="evenodd" d="M13.3933 0.883379C13.3355 0.38604 12.9128 0 12.4 0C11.8477 0 11.4 0.447715 11.4 1V2H6.4V1L6.39327 0.883379C6.33551 0.38604 5.91284 0 5.4 0C4.84772 0 4.4 0.447715 4.4 1V2H4C1.79086 2 0 3.79086 0 6V16C0 18.2091 1.79086 20 4 20H14C16.2091 20 18 18.2091 18 16V6C18 3.79086 16.2091 2 14 2H13.4V1L13.3933 0.883379ZM4.40673 4.11662L4.4 4H4C2.89543 4 2 4.89543 2 6V6.5H16V6C16 4.89543 15.1046 4 14 4H13.4C13.4 4.55228 12.9523 5 12.4 5C11.8872 5 11.4645 4.61396 11.4067 4.11662L11.4 4H6.4C6.4 4.55228 5.95228 5 5.4 5C4.88716 5 4.46449 4.61396 4.40673 4.11662ZM16 8.5H2V16C2 17.1046 2.89543 18 4 18H14C15.1046 18 16 17.1046 16 16V8.5Z" fill="#0E8A3E"/>
</svg>
