<svg width="51" height="50" viewBox="0 0 51 50" fill="none" xmlns="http://www.w3.org/2000/svg">
<path d="M25.6 50C39.4071 50 50.6 38.8071 50.6 25C50.6 11.1929 39.4071 0 25.6 0C11.7929 0 0.600037 11.1929 0.600037 25C0.600037 38.8071 11.7929 50 25.6 50Z" fill="#0E8A3E"/>
<path d="M30.8844 9.37253C29.5118 8.75488 27.9824 8.41174 26.3844 8.41174C23.4726 8.41174 20.7275 9.52939 18.6393 11.5686C16.7177 13.451 15.5608 15.9117 15.3452 18.5882C15.355 18.5882 15.3746 18.598 15.3844 18.598V24.8725C15.3844 25.0294 15.4726 25.1666 15.6099 25.2255L16.1491 25.4804C16.2765 25.5392 16.355 25.647 16.3746 25.7843C16.3942 25.9215 16.3452 26.049 16.2373 26.1372L15.5216 26.7451C15.4334 26.8235 15.3844 26.9215 15.3844 27.049V28.049C15.3844 28.2549 15.5412 28.4215 15.7373 28.4411L16.4628 28.5098C16.6589 28.5294 16.8157 28.696 16.8157 28.8921L16.8353 29.4706C16.8452 29.6764 16.6883 29.8529 16.4824 29.8725L15.7373 29.9411C15.5314 29.9608 15.3844 30.1274 15.3844 30.3333V31.4411C15.3844 31.647 15.5314 31.8137 15.7373 31.8333L16.2667 31.8921C16.4138 31.9117 16.5314 32 16.5804 32.1274C16.6393 32.2647 16.6197 32.4019 16.5314 32.5196L15.4726 33.9215C15.4138 33.9902 15.3942 34.0686 15.3942 34.1568V34.5784V34.696C15.3942 34.8921 15.5412 35.0588 15.7373 35.0882L16.8746 35.2353C17.0706 35.2647 17.2177 35.4313 17.2177 35.6274V36.2941C17.2177 36.4902 17.0706 36.6568 16.8648 36.6862L15.7471 36.8137C15.551 36.8333 15.3942 37 15.3942 37.2058V38.1666C15.3942 38.2549 15.4138 38.3235 15.4628 38.3921L18.8942 43.2843C18.9726 43.3921 19.0903 43.4607 19.2275 43.4509C19.3648 43.4509 19.4824 43.3823 19.551 43.2647L20.404 41.8529C20.4432 41.7843 20.4628 41.7255 20.4628 41.647V33.8137V19.0882C20.7961 19.049 21.1197 19 21.4432 18.9313V32.9313V39.0098C21.4432 39.1862 21.551 39.3333 21.7177 39.3823C21.8844 39.4313 22.0608 39.3725 22.1589 39.2255L22.7373 38.3725C22.7863 38.3039 22.8059 38.2353 22.8059 38.147V29.9313C23.953 30.3235 25.1687 30.5294 26.3844 30.5294C32.4922 30.5294 37.4628 25.5588 37.4628 19.451C37.4628 14.9902 34.7569 11.1078 30.8844 9.37253ZM26.7177 24.0098C24.2373 24.0098 22.2373 22 22.2373 19.5294C22.2373 17.0588 24.2471 15.049 26.7177 15.049C29.1883 15.049 31.1981 17.0588 31.1981 19.5294C31.1981 22 29.1981 24.0098 26.7177 24.0098Z" fill="white"/>
</svg>
