
                    <svg width="161" height="30" viewBox="0 0 161 30" fill="none" xmlns="http://www.w3.org/2000/svg">
                        <path
                            d="M24.9629 30H5.00928C2.22635 30 0 27.7458 0 24.9907V5.00928C0 2.22635 2.25417 0 5.00928 0H24.9629C27.7458 0 29.9722 2.25417 29.9722 5.00928V24.9629C29.9722 27.7458 27.7458 30 24.9629 30Z"
                            fill="#0E8A3E" />
                        <path
                            d="M18.7013 4.89795C17.8385 4.50834 16.8924 4.28571 15.8905 4.28571C14.0538 4.28571 12.3562 4.98144 11.0482 6.26159C9.85154 7.43042 9.12797 8.98886 8.961 10.6586H8.98884V14.5826C8.98884 14.666 9.0445 14.7774 9.12798 14.8052L9.46194 14.9722C9.54543 15.0278 9.57326 15.0557 9.60109 15.167C9.60109 15.2505 9.57324 15.3339 9.51758 15.3896L9.07232 15.7792C9.01666 15.8349 8.98884 15.8905 8.98884 15.974V16.6141C8.98884 16.7254 9.07232 16.8646 9.21147 16.8646L9.65673 16.9202C9.76805 16.9202 9.87938 17.0315 9.87938 17.1707V17.5325C9.87938 17.6438 9.79588 17.7829 9.65673 17.7829L9.21147 17.8386C9.10015 17.8664 8.98884 17.9499 8.98884 18.089V18.7848C8.98884 18.8961 9.07232 19.0352 9.21147 19.0352L9.54542 19.0909C9.62891 19.0909 9.7124 19.1744 9.74023 19.2301C9.76806 19.3135 9.76805 19.397 9.71239 19.4805L9.07232 20.371C9.04449 20.4267 9.01666 20.4545 9.01666 20.5102V20.7885V20.872C9.01666 20.9833 9.10015 21.0946 9.23929 21.1224L9.96286 21.2059C10.0742 21.2338 10.1855 21.3172 10.1855 21.4564V21.8738C10.1855 21.9852 10.102 22.1243 9.96286 22.1243L9.26713 22.2078C9.15581 22.2356 9.0445 22.3191 9.0445 22.4582V23.0705C9.0445 23.1262 9.07232 23.154 9.10015 23.2096L11.243 26.2709C11.2987 26.3544 11.3543 26.3544 11.4656 26.3544C11.5491 26.3544 11.6326 26.2987 11.6604 26.243L12.1892 25.3525C12.217 25.2968 12.217 25.269 12.217 25.2412V20.371V11.1595C12.4397 11.1317 12.6345 11.1039 12.8293 11.0761V19.8701V23.6827C12.8293 23.7941 12.9128 23.8775 12.9962 23.9332C13.0797 23.961 13.2189 23.9332 13.2745 23.8497L13.6363 23.321C13.6642 23.2653 13.692 23.2375 13.692 23.1818V17.8108C14.4155 18.0612 15.1669 18.2004 15.9462 18.2004C19.7866 18.2004 22.9035 15.0835 22.9035 11.243C22.8478 8.40444 21.1502 5.95547 18.7013 4.89795ZM16.1131 14.0538C14.5825 14.0538 13.3024 12.8015 13.3024 11.243C13.3024 9.68459 14.5547 8.43228 16.1131 8.43228C17.6437 8.43228 18.9239 9.68459 18.9239 11.243C18.9239 12.8015 17.6437 14.0538 16.1131 14.0538Z"
                            fill="white" />
                        <path
                            d="M48.9796 12.6067C48.9796 16.2245 46.2523 18.8405 42.6066 18.8405H40.0185V23.5993H35.2597V6.40076H42.5788C46.2801 6.40076 48.9796 9.01671 48.9796 12.6067ZM44.1094 12.6345C44.1094 11.41 43.2745 10.5473 42.0501 10.5473H40.0463V14.7217H42.0501C43.3024 14.7217 44.1094 13.859 44.1094 12.6345Z"
                            fill="#0E8A3E" />
                        <path
                            d="M64.9814 10.3247V23.5992H61.4471L61.0575 22.653C59.9721 23.5436 58.5807 24.0445 57.0501 24.0445C52.987 24.0445 50.0927 21.0946 50.0927 16.948C50.0927 12.8293 52.987 9.90723 57.0501 9.90723C58.6085 9.90723 60 10.436 61.1132 11.3265L61.5863 10.2968L64.9814 10.3247ZM60.6401 16.9759C60.6401 15.2505 59.3877 13.9703 57.6623 13.9703C55.9369 13.9703 54.6846 15.2505 54.6846 16.9759C54.6846 18.7013 55.9369 20.0093 57.6623 20.0093C59.3599 19.9814 60.6401 18.7013 60.6401 16.9759Z"
                            fill="#0E8A3E" />
                        <path
                            d="M76.5027 10.269V14.4434H74.7217C73.1076 14.4434 72.4118 15.167 72.4118 16.8367V23.5993H67.8478V10.3247H70.9091L71.6326 11.7996C72.5788 10.7143 73.7198 10.269 75.2783 10.269H76.5027Z"
                            fill="#0E8A3E" />
                        <path
                            d="M87.4119 19.5918V23.5992H84.2672C81.3451 23.5992 79.5362 21.8182 79.5362 18.8683V13.859H77.115V12.8015L83.0705 6.45639H84.0167V10.3247H87.3562V13.8312H84.128V18.0612C84.128 19.0074 84.7124 19.5918 85.6586 19.5918H87.4119Z"
                            fill="#0E8A3E" />
                        <path
                            d="M103.414 10.3247L97.8479 23.0148C96.0668 27.0779 94.4249 28.5529 90.974 28.5529H89.4156V24.6289H90.6679C92.4212 24.6289 92.9499 24.1837 93.5622 22.5139L88.0798 10.3525H93.0334L95.8441 17.6716L98.4601 10.3525H103.414V10.3247Z"
                            fill="#0E8A3E" />
                        <path
                            d="M121.002 19.4805V23.5993H109.787V6.40076H120.807V10.4917H114.518V13.0241H120.167V16.9202H114.518V19.5084H121.002V19.4805Z"
                            fill="#0E8A3E" />
                        <path
                            d="M131.716 24.0445C126.484 24.0445 122.56 20.1763 122.56 15.0278C122.56 9.85158 126.484 5.98331 131.716 5.98331C136.224 5.98331 139.703 8.96104 140.427 13.3302H135.612C135.028 11.577 133.525 10.4082 131.716 10.4082C129.267 10.4082 127.486 12.3562 127.486 15.0278C127.486 17.6716 129.267 19.6197 131.716 19.6197C133.636 19.6197 135.139 18.3674 135.612 16.475H140.455C139.814 20.9555 136.308 24.0445 131.716 24.0445Z"
                            fill="#0E8A3E" />
                        <path
                            d="M151.336 24.0445C145.798 24.0445 141.846 20.2597 141.846 15C141.846 9.74026 145.798 5.95547 151.336 5.95547C156.846 5.95547 160.798 9.71243 160.798 15C160.77 20.2597 156.846 24.0445 151.336 24.0445ZM151.336 19.6197C153.952 19.6197 155.844 17.6716 155.844 15C155.844 12.3006 153.952 10.3803 151.336 10.3803C148.72 10.3803 146.8 12.3284 146.8 15C146.772 17.6716 148.692 19.6197 151.336 19.6197Z"
                            fill="#0E8A3E" />
                    </svg>